<?xml version="1.0" encoding="UTF-8"?>
<svg version="1.1" xmlns="http://www.w3.org/2000/svg" width="800" height="500">
<path d="M0 0 C264 0 528 0 800 0 C800 165 800 330 800 500 C536 500 272 500 0 500 C0 335 0 170 0 0 Z " fill="#FEFEFE" transform="translate(0,0)"/>
<path d="M0 0 C0.98774239 -0.00170885 1.97548478 -0.0034177 2.99315876 -0.00517833 C6.28196772 -0.00845597 9.57056977 0.00250198 12.85935974 0.01345825 C15.22518916 0.01402274 17.59101893 0.01370507 19.95684814 0.01257324 C26.36523255 0.01200019 32.77354186 0.02374686 39.18190885 0.03772116 C45.20487507 0.04992715 51.22784969 0.05096894 57.25082599 0.0530249 C69.17536438 0.05739512 81.09987531 0.07068589 93.0243988 0.08963013 C104.60349897 0.1080064 116.18259167 0.12215434 127.76170349 0.13064575 C128.47621792 0.1311712 129.19073235 0.13169665 129.92689873 0.13223802 C133.51164007 0.13484821 137.09638147 0.1373756 140.6811229 0.13986182 C170.38956054 0.16057333 200.09796957 0.19592981 229.80638123 0.24050903 C230.13638123 0.90050903 230.46638123 1.56050903 230.80638123 2.24050903 C224.72925331 9.53769221 217.99159285 16.13752689 211.24388123 22.80300903 C209.03122498 24.98878703 206.82089146 27.1768344 204.61497498 29.36941528 C204.09164581 29.88952179 203.56831665 30.4096283 203.02912903 30.94549561 C200.34753204 33.63054693 197.77155259 36.35323255 195.34153748 39.26785278 C189.62280978 45.97347955 189.62280978 45.97347955 184.409091 46.73993778 C183.09972482 46.7397285 181.79035864 46.73951921 180.4413147 46.73930359 C179.70920865 46.74468814 178.9771026 46.7500727 178.22281152 46.75562042 C175.77400725 46.76887527 173.32620836 46.75375432 170.87742615 46.73880005 C169.11941569 46.74262403 167.36140836 46.74824375 165.60340881 46.75552368 C161.81761944 46.76747806 158.0321074 46.76698141 154.2463131 46.7569294 C148.24713577 46.74135094 142.24824221 46.75506229 136.24908447 46.77296448 C124.5799688 46.80380053 112.91093965 46.80528704 101.24179077 46.80331421 C86.42895833 46.80192239 71.61619379 46.81246353 56.80341035 46.85189193 C50.85423273 46.86673658 44.90530764 46.86662068 38.95612657 46.85441411 C35.23181405 46.84966246 31.50759564 46.85728626 27.78329849 46.86795807 C26.07264062 46.87033996 24.3619662 46.86771619 22.65132713 46.8593502 C2.75874086 46.76798927 -15.23486735 48.95985863 -30.19361877 63.24050903 C-33.81726487 67.09374348 -37.12748142 71.22259512 -40.48955917 75.30280495 C-81.44537638 124.44633866 -81.44537638 124.44633866 -106.30738449 127.01452446 C-122.61048824 128.256259 -139.19803449 126.36961712 -155.19361877 123.24050903 C-154.41539666 119.57459828 -153.32706845 118.06790216 -150.56861877 115.49050903 C-147.90608562 112.98583358 -145.45070557 110.40556692 -143.07643127 107.63113403 C-137.70324677 101.42986561 -131.77127463 95.77463369 -125.93190002 90.01785278 C-121.2504781 85.37696266 -116.73561618 80.71894224 -112.55104065 75.62136841 C-112.10309143 75.16568481 -111.65514221 74.71000122 -111.19361877 74.24050903 C-110.53361877 74.24050903 -109.87361877 74.24050903 -109.19361877 74.24050903 C-108.93999573 73.66018921 -108.68637268 73.07986938 -108.42506409 72.48196411 C-107.05445619 69.98720775 -105.52681999 68.36187937 -103.49049377 66.37722778 C-102.39027893 65.29344849 -102.39027893 65.29344849 -101.26783752 64.18777466 C-100.50084534 63.442052 -99.73385315 62.69632935 -98.94361877 61.92800903 C-94.27071925 57.36331559 -89.72106799 52.81057327 -85.52735901 47.79885864 C-83.54314579 45.48049273 -81.37543618 43.37220813 -79.19361877 41.24050903 C-78.10214395 40.14056265 -77.01242164 39.03887556 -75.92408752 37.93582153 C-65.93869656 27.85518487 -55.99684403 19.16302127 -44.19361877 11.24050903 C-42.79949768 10.198302 -42.79949768 10.198302 -41.37721252 9.13504028 C-37.34071297 6.73295159 -33.41965715 5.70619335 -28.88111877 4.61550903 C-27.67552307 4.31000122 -27.67552307 4.31000122 -26.4455719 3.99832153 C-24.03207522 3.39252028 -21.61704824 2.80543683 -19.19361877 2.24050903 C-18.57612717 2.07886139 -17.95863557 1.91721375 -17.3224321 1.75066769 C-11.47554792 0.30416974 -6.00648908 -0.03855381 0 0 Z " fill="#FC0201" transform="translate(167.19361877441406,177.75949096679688)"/>
<path d="M0 0 C1.89472549 -0.00421463 1.89472549 -0.00421463 3.82772827 -0.0085144 C5.21597134 0.013814 6.60420571 0.03668908 7.99243164 0.06005859 C9.45406323 0.06654441 10.91570574 0.07087777 12.37734985 0.07321167 C16.31832001 0.08596116 20.25837671 0.13003857 24.1990242 0.18026733 C28.29598372 0.2274037 32.3930809 0.2462401 36.49023438 0.26904297 C45.74232509 0.32715057 54.99356408 0.43173051 64.24504089 0.55152893 C66.67405445 0.58296504 69.10307761 0.61353385 71.53210449 0.6439209 C90.5945116 0.88440997 109.65507934 1.19499752 128.71508789 1.58349609 C129.87352582 5.03271986 129.76701683 5.46972983 128.13232422 9.05102539 C120.85636419 21.21952813 110.55839575 33.94642473 96.71508789 38.58349609 C74.04450006 43.89374196 48.16946454 41.25471465 25.13168335 39.82022095 C24.32323817 39.77668393 23.514793 39.73314692 22.68184948 39.6882906 C21.17909017 39.60621135 19.67710036 39.50764251 18.17677021 39.38918591 C14.6997774 39.21201674 13.05651075 39.32492091 10.23750305 41.45988464 C8.52087331 43.41891474 8.52087331 43.41891474 8.71508789 45.58349609 C11.78924732 46.6082159 13.80960971 46.6873452 17.02514648 46.64941406 C18.10992279 46.63965546 19.1946991 46.62989685 20.31234741 46.61984253 C22.07018051 46.59798386 22.07018051 46.59798386 23.86352539 46.57568359 C26.33747962 46.55816627 28.81143821 46.54125809 31.28540039 46.52490234 C35.19177268 46.4939306 39.09792792 46.45840318 43.00415039 46.41210938 C46.76980312 46.36979333 50.53519994 46.34633401 54.30102539 46.32568359 C56.0527858 46.29775223 56.0527858 46.29775223 57.8399353 46.26925659 C58.93101593 46.26580231 60.02209656 46.26234802 61.14624023 46.25878906 C62.10315765 46.24911102 63.06007507 46.23943298 64.04598999 46.22946167 C69.09797726 46.89956725 72.99103975 50.26204775 76.71508789 53.58349609 C79.28135458 57.9146339 79.53146547 61.66316638 78.71508789 66.58349609 C73.9020782 79.85129848 64.55784614 90.81737286 53.71508789 99.58349609 C53.02801758 100.17517578 52.34094727 100.76685547 51.63305664 101.37646484 C42.93417556 108.22585409 31.96379632 111.68873503 21.71508789 115.58349609 C20.75973145 115.9542627 19.804375 116.3250293 18.82006836 116.70703125 C17.87663574 117.06458496 16.93320312 117.42213867 15.96118164 117.79052734 C15.12127686 118.11126221 14.28137207 118.43199707 13.41601562 118.76245117 C7.84847878 120.45490588 2.2772117 120.70915164 -3.50976562 120.71289062 C-4.19849825 120.71462029 -4.88723087 120.71634995 -5.59683418 120.71813202 C-7.8691871 120.72246222 -10.14146457 120.71955108 -12.41381836 120.71630859 C-14.02911909 120.71732443 -15.64441964 120.718664 -17.25971985 120.7203064 C-21.56765852 120.72299653 -25.87556097 120.71856117 -30.18349457 120.71206665 C-32.84435636 120.70850019 -35.50521278 120.70687896 -38.16607666 120.70581055 C-65.549048 120.69212651 -92.91321919 120.42528871 -120.28491211 119.58349609 C-117.62015492 106.12998256 -99.80943495 91.3361562 -89.02722931 84.08563995 C-74.72907865 76.25362139 -54.92779067 79.13181258 -39.28662109 80.0871582 C-32.60552515 80.45775601 -25.9159446 80.59311407 -19.22728443 80.7619524 C-14.04025943 80.89665778 -8.86236408 81.06516767 -3.68083191 81.34269714 C-2.73930771 81.38682236 -1.79778351 81.43094757 -0.82772827 81.47640991 C0.92514656 81.56010401 2.67736733 81.65962494 4.42823792 81.77806091 C8.08780229 81.93776866 10.19114265 81.96522474 13.20475769 79.76960754 C14.87462638 77.56999666 14.87462638 77.56999666 15.71508789 74.58349609 C-13.32491211 74.58349609 -42.36491211 74.58349609 -72.28491211 74.58349609 C-73.28491211 70.58349609 -73.28491211 70.58349609 -71.78491211 67.70849609 C-69.63171569 64.74877594 -67.04701229 62.58169764 -64.22033691 60.28479004 C-62.31108545 58.60650321 -60.72449422 56.86723768 -59.08764648 54.92529297 C-55.17970583 50.39875869 -51.00394082 46.19307551 -46.75366211 41.98974609 C-45.95891479 41.1987854 -45.16416748 40.40782471 -44.34533691 39.59289551 C-40.97955663 36.24331037 -37.60780163 32.89976339 -34.23657227 29.55566406 C-31.76100984 27.0982867 -29.28853128 24.63783552 -26.81616211 22.17724609 C-26.06492065 21.43430298 -25.3136792 20.69135986 -24.53967285 19.92590332 C-20.51994782 15.92468053 -16.67337646 11.8460767 -13.0045166 7.51965332 C-12.43704712 6.88072144 -11.86957764 6.24178955 -11.28491211 5.58349609 C-10.52190292 4.69266327 -9.75889374 3.80183044 -8.97276306 2.88400269 C-5.70214053 0.08470733 -4.24929202 -0.03127558 0 0 Z " fill="#030303" transform="translate(656.284912109375,179.41650390625)"/>
<path d="M0 0 C1.45899357 0.00197596 2.91799411 0.00086335 4.37698364 -0.00309753 C8.32752906 -0.00510248 12.27658065 0.03599134 16.22677946 0.08492017 C20.35867922 0.1287399 24.49061491 0.132796 28.62271118 0.14109802 C36.44268654 0.16283735 44.26197522 0.22025614 52.08164847 0.29054445 C60.98599498 0.36884159 69.89037464 0.4072878 78.79497981 0.4424125 C97.10801228 0.51554075 115.42040597 0.63863047 133.73291016 0.79467773 C133.73291016 2.44467773 133.73291016 4.09467773 133.73291016 5.79467773 C132.74291016 6.12467773 131.75291016 6.45467773 130.73291016 6.79467773 C129.17566958 8.32845537 129.17566958 8.32845537 127.64697266 10.25170898 C123.39312001 15.26445967 118.7779779 19.85954036 114.10791016 24.48217773 C113.27517578 25.31040039 112.44244141 26.13862305 111.58447266 26.99194336 C109.30238672 29.26131066 107.01784769 31.52818243 104.73291016 33.79467773 C102.03380233 36.4820673 99.35095405 39.18297969 96.68994141 41.90795898 C95.64180983 42.97440996 94.5936323 44.04081578 93.54541016 45.10717773 C92.74586914 45.93185547 92.74586914 45.93185547 91.93017578 46.77319336 C90.5686606 48.15183452 89.15450513 49.478075 87.73291016 50.79467773 C87.07291016 50.79467773 86.41291016 50.79467773 85.73291016 50.79467773 C85.73291016 51.45467773 85.73291016 52.11467773 85.73291016 52.79467773 C84.47509766 53.99389648 84.47509766 53.99389648 82.60791016 55.48217773 C78.54820933 58.9139904 74.99746518 62.66375423 71.41650391 66.57592773 C63.80414146 74.8111089 55.88993326 82.71962353 47.92041016 90.60717773 C45.24435463 93.25664049 42.57166887 95.90943971 39.90087891 98.56420898 C39.29374557 99.16304398 38.68661224 99.76187897 38.06108093 100.37886047 C35.02266549 103.3007346 35.02266549 103.3007346 32.73291016 106.79467773 C32.07291016 106.79467773 31.41291016 106.79467773 30.73291016 106.79467773 C30.49701172 107.35928711 30.26111328 107.92389648 30.01806641 108.50561523 C28.44056074 111.31539736 26.4923973 113.19086825 24.17041016 115.41967773 C21.04248962 118.30538455 21.04248962 118.30538455 18.73291016 121.79467773 C-5.68708984 121.79467773 -30.10708984 121.79467773 -55.26708984 121.79467773 C-55.26708984 115.79467773 -55.26708984 115.79467773 -53.72802734 113.95874023 C-53.03966797 113.45084961 -52.35130859 112.94295898 -51.64208984 112.41967773 C-48.78267116 110.28333044 -46.72802697 108.14513203 -44.67333984 105.25952148 C-40.90071889 100.08632245 -36.39871675 95.66180485 -31.85449219 91.17626953 C-30.39638481 89.73641893 -28.94644082 88.28872699 -27.49755859 86.83959961 C-22.88824846 82.24814244 -18.20516845 77.8046693 -13.26855469 73.56689453 C-9.19102042 69.95640158 -5.3684174 66.08048227 -1.51708984 62.23217773 C-0.68048828 61.40782227 0.15611328 60.5834668 1.01806641 59.73413086 C5.13062698 55.63140894 8.60127455 51.71078138 11.73291016 46.79467773 C13.38291016 45.14467773 15.03291016 43.49467773 16.73291016 41.79467773 C-14.94708984 41.29967773 -14.94708984 41.29967773 -47.26708984 40.79467773 C-46.14776855 35.19807128 -46.14776855 35.19807128 -43.14208984 32.48217773 C-40.65122817 30.13221328 -38.30806469 27.77047761 -36.07958984 25.16967773 C-32.39255641 20.89038327 -28.55924833 16.75521789 -24.70581055 12.6262207 C-24.21943115 12.10302246 -23.73305176 11.57982422 -23.23193359 11.04077148 C-22.75964136 10.54781365 -22.28734913 10.05485582 -21.80074501 9.54695988 C-20.23439205 7.86003969 -20.23439205 7.86003969 -19.1666317 5.97436428 C-14.51547686 -1.17066475 -7.76511633 -0.14700099 0 0 Z " fill="#040404" transform="translate(510.26708984375,177.205322265625)"/>
<path d="M0 0 C59.73 0 119.46 0 181 0 C171.69014037 10.8615029 161.98374418 21.14930354 151.7878418 31.17529297 C151.094729 31.85994629 150.40161621 32.54459961 149.6875 33.25 C149.07261719 33.85328125 148.45773437 34.4565625 147.82421875 35.078125 C145.87498659 36.96934105 145.87498659 36.96934105 144.57847595 39.58088684 C140.5050225 43.40258036 136.3107702 42.68704941 130.92016602 42.62768555 C129.78954239 42.63495667 128.65891876 42.64222778 127.49403381 42.64971924 C123.747009 42.66835602 120.00093213 42.65221776 116.25390625 42.63671875 C113.64516853 42.64475875 111.03643738 42.65527677 108.42771912 42.66816711 C102.24902078 42.69532792 96.07056803 42.69880908 89.8918218 42.69239408 C78.20618388 42.68083358 66.52068372 42.71205366 54.83512688 42.75275612 C51.01042012 42.76155989 47.18592738 42.75632047 43.36122131 42.74919128 C40.98894189 42.75257966 38.61666295 42.75633007 36.24438477 42.76049805 C34.6688382 42.75195549 34.6688382 42.75195549 33.0614624 42.74324036 C17.96207722 42.58252368 17.96207722 42.58252368 5 49 C3.69183263 50.56155311 2.4004047 52.13718802 1.12011719 53.72167969 C-5.41829338 61.71387905 -11.5150661 69.00622635 -22.15820312 70.63476562 C-29.3688687 71.15303438 -36.51831516 70.85969511 -43.72344971 70.37329102 C-47.14768752 70.16496766 -50.57509997 70.076599 -54.00390625 69.9765625 C-60.67721806 69.75845358 -67.3368906 69.42594602 -74 69 C-74 65 -74 65 -71.83984375 62.484375 C-70.88207031 61.58203125 -69.92429687 60.6796875 -68.9375 59.75 C-65.70112499 56.67788545 -62.62761758 53.62194702 -59.72265625 50.234375 C-54.80502944 44.53594755 -49.38835614 39.3427265 -44.02734375 34.06640625 C-39.68466378 29.76554985 -35.49051228 25.41285042 -31.52075195 20.76391602 C-24.58327815 12.7171592 -16.24684026 5.34992855 -6 2 C-2.5625 1.8125 -2.5625 1.8125 0 2 C0 1.34 0 0.68 0 0 Z " fill="#FC0201" transform="translate(166,232)"/>
<path d="M0 0 C1.61802198 0.02431134 3.23614107 0.04278576 4.85429382 0.05574036 C9.07044662 0.10488553 13.28057808 0.23209015 17.49438477 0.37689209 C21.81118307 0.51098777 26.12897561 0.56948311 30.44726562 0.63476562 C38.88815053 0.77330862 47.32418153 0.99451774 55.76171875 1.26953125 C52.37375811 5.94202953 48.96358415 10.31445245 44.828125 14.36328125 C43.93158203 15.24886719 43.03503906 16.13445312 42.11132812 17.046875 C40.73170898 18.39458984 40.73170898 18.39458984 39.32421875 19.76953125 C33.85779705 25.13208709 28.49059142 30.47504122 23.51147461 36.29492188 C19.39359596 40.9419712 14.85890164 45.207536 10.43359375 49.55859375 C6.95156145 53.00509511 3.54325 56.45356678 0.35546875 60.17578125 C-4.90108042 66.29227279 -10.7609989 71.83436039 -16.5 77.4921875 C-20.99934742 81.95257953 -25.33473571 86.45255187 -29.45507812 91.26367188 C-33.79170943 96.14178836 -38.56112635 100.62677059 -43.2109375 105.203125 C-47.53667905 109.48720612 -51.71201291 113.81825339 -55.65039062 118.46289062 C-56.43639648 119.35717773 -56.43639648 119.35717773 -57.23828125 120.26953125 C-57.7872406 120.95742737 -58.33619995 121.64532349 -58.90179443 122.35406494 C-62.09504872 124.9719145 -64.11255005 124.75269246 -68.20996094 124.72363281 C-68.90304855 124.72421692 -69.59613617 124.72480103 -70.31022644 124.72540283 C-72.5940514 124.72262294 -74.87656022 124.69153832 -77.16015625 124.66015625 C-78.7462696 124.65269345 -80.33239219 124.6470007 -81.91851807 124.64300537 C-86.08788628 124.6277519 -90.25669481 124.58847312 -94.42584229 124.54418945 C-98.68225534 124.50323023 -102.93875906 124.484993 -107.1953125 124.46484375 C-115.54322525 124.42197808 -123.89068358 124.35373085 -132.23828125 124.26953125 C-131.49666908 119.72914754 -130.34942553 117.90953692 -127.01171875 114.6875 C-126.14417969 113.83736328 -125.27664063 112.98722656 -124.3828125 112.11132812 C-123.46886719 111.23541016 -122.55492187 110.35949219 -121.61328125 109.45703125 C-116.18129067 104.18619234 -110.85040534 98.9489661 -105.93212891 93.19262695 C-102.24481435 89.00626536 -98.17979971 85.17385587 -94.19921875 81.26953125 C-90.95233465 78.06025585 -87.80637102 74.82816254 -84.83203125 71.36328125 C-79.96216667 65.70937952 -74.58027995 60.56663266 -69.265625 55.3359375 C-65.00355745 51.11491715 -60.93169566 46.82984734 -57.02539062 42.27929688 C-52.88771961 37.62611275 -48.34819893 33.34404763 -43.91015625 28.98046875 C-40.48007153 25.5853849 -37.11734504 22.19579586 -33.98828125 18.51953125 C-33.45349655 17.91775558 -32.91871185 17.31597992 -32.36772156 16.69596863 C-31.22253771 15.39106382 -30.08440138 14.07886017 -28.99404335 12.727808 C-20.17726579 1.88307105 -13.74149509 -0.61518771 0 0 Z " fill="#FD0201" transform="translate(426.23828125,176.73046875)"/>
<path d="M0 0 C0 3 0 3 -1.3125 4.60546875 C-1.869375 5.12753906 -2.42625 5.64960938 -3 6.1875 C-3.556875 6.71730469 -4.11375 7.24710938 -4.6875 7.79296875 C-5.120625 8.19128906 -5.55375 8.58960938 -6 9 C-5.34 9.33 -4.68 9.66 -4 10 C-3.67 9.34 -3.34 8.68 -3 8 C-2.34 8.66 -1.68 9.32 -1 10 C-1.928125 10.721875 -2.85625 11.44375 -3.8125 12.1875 C-6.58673115 14.50263852 -8.43394082 16.69387506 -10 20 C-10 20.99 -10 21.98 -10 23 C19.04 23.33 48.08 23.66 78 24 C76.92465296 28.30138817 76.5481748 29.49485188 73 32 C69.93430381 32.55005191 66.92167884 32.45049381 63.81616211 32.37133789 C62.88715088 32.36400635 61.95813965 32.3566748 61.00097656 32.34912109 C58.98366003 32.33166779 56.966404 32.30557893 54.94929314 32.27189827 C51.7489972 32.22221619 48.54991137 32.20325614 45.34925842 32.19371033 C36.24983667 32.16367214 27.15145929 32.09942927 18.05297852 31.96264648 C12.4847342 31.88113146 6.91835635 31.8537314 1.34955025 31.85992241 C-0.76555334 31.85180776 -2.8806851 31.82349367 -4.99522591 31.7740345 C-18.20301753 31.10515909 -18.20301753 31.10515909 -29.43305874 37.01582241 C-31.48483301 39.21565099 -33.29611132 41.52315736 -35 44 C-35.495 42.515 -35.495 42.515 -36 41 C-36.49628906 41.43570313 -36.99257813 41.87140625 -37.50390625 42.3203125 C-41.97819019 46.24273979 -46.47564042 50.13544286 -51 54 C-49.59879754 50.82716634 -47.94854242 48.70831007 -45.48754883 46.27636719 C-44.41051445 45.20440094 -44.41051445 45.20440094 -43.3117218 44.11077881 C-42.53467392 43.34719055 -41.75762604 42.58360229 -40.95703125 41.796875 C-40.1552092 41.00025452 -39.35338715 40.20363403 -38.52726746 39.38287354 C-35.96037582 36.8337925 -33.38692442 34.2914714 -30.8125 31.75 C-28.25675608 29.22200181 -25.7025261 26.69252167 -23.15129089 24.15997314 C-21.5646798 22.58547555 -19.97540406 21.01365686 -18.38301086 19.44500732 C-14.24782787 15.34662881 -10.29337956 11.1639336 -6.51200867 6.73590088 C-4.45033659 4.36894463 -2.25273966 2.18447482 0 0 Z " fill="#D4D4D4" transform="translate(594,230)"/>
<path d="M0 0 C54.78 0 109.56 0 166 0 C165.67 1.65 165.34 3.3 165 5 C164.34 5.33 163.68 5.66 163 6 C163.165 6.598125 163.33 7.19625 163.5 7.8125 C164 10 164 10 164 13 C162.73754883 14.69482422 162.73754883 14.69482422 160.95703125 16.5546875 C160.3012207 17.24602783 159.64541016 17.93736816 158.96972656 18.6496582 C157.90189941 19.75120239 157.90189941 19.75120239 156.8125 20.875 C156.0915918 21.62934326 155.37068359 22.38368652 154.62792969 23.16088867 C148.186428 29.87539544 141.62252147 36.46461697 135 43 C133.66556246 44.33222821 132.33174698 45.6650822 131 47 C131 46.34 131 45.68 131 45 C129.68 45.33 128.36 45.66 127 46 C127 45.34 127 44.68 127 44 C126.01 44.33 125.02 44.66 124 45 C122.30900583 45.09741182 120.6144521 45.13761507 118.92066956 45.14476013 C117.34550064 45.15510788 117.34550064 45.15510788 115.73851013 45.16566467 C114.58673782 45.16827805 113.43496552 45.17089142 112.24829102 45.17358398 C111.03508179 45.180271 109.82187256 45.18695801 108.57189941 45.19384766 C105.93311276 45.20791327 103.29438125 45.22023784 100.65558052 45.22979546 C96.48298622 45.2452512 92.31046767 45.26919972 88.13792419 45.29469299 C76.27290633 45.3658887 64.40784544 45.42569855 52.54272461 45.47680664 C45.98958548 45.50510884 39.43652208 45.54048756 32.88346237 45.58346039 C28.73573811 45.61023184 24.58809949 45.62813738 20.44030583 45.63949764 C17.25385424 45.65076634 14.06749536 45.67488826 10.88110352 45.69702148 C9.73135544 45.69761063 8.58160736 45.69819977 7.39701843 45.69880676 C6.344086 45.70852509 5.29115356 45.71824341 4.20631409 45.72825623 C2.83500005 45.73460413 2.83500005 45.73460413 1.4359827 45.74108028 C-1.13730056 46.01459363 -2.78319177 46.69870357 -5 48 C-5.66 47.34 -6.32 46.68 -7 46 C1.05446616 41.97276692 11.02779906 42.87579486 19.79272461 42.98510742 C22.1424067 43.0045224 24.49209261 43.02347838 26.84178162 43.04203796 C28.07348021 43.0531983 29.30517879 43.06435863 30.57420158 43.07585716 C37.82976035 43.13198063 45.08555798 43.13539543 52.34130275 43.14541471 C59.99625967 43.15671047 67.64997009 43.18763426 75.30444336 43.27758789 C82.06627779 43.35690508 88.82600496 43.37290841 95.58825874 43.3517704 C98.15545004 43.35421956 100.72271537 43.37780745 103.2895031 43.42339134 C117.33673968 44.32416487 117.33673968 44.32416487 129.92440796 39.39950562 C132.77619621 36.58390788 134.85828611 33.38165441 137 30 C138.47526712 28.42475072 139.98484961 26.87988657 141.546875 25.390625 C142.24683594 24.69839844 142.94679688 24.00617188 143.66796875 23.29296875 C144.35503906 22.61878906 145.04210937 21.94460937 145.75 21.25 C150.51926838 16.56824113 155.12560694 11.83851066 159.46582031 6.75292969 C160.90787683 5.1052585 162.45171912 3.54828088 164 2 C109.88 1.67 55.76 1.34 0 1 C0 0.67 0 0.34 0 0 Z " fill="#FDD6D4" transform="translate(182,231)"/>
<path d="M0 0 C2.475 0.495 2.475 0.495 5 1 C3.00396359 3.33682311 1.00360671 5.66967922 -1 8 C-1.79028847 8.92467323 -1.79028847 8.92467323 -2.59654236 9.86802673 C-6.77076335 14.70439155 -11.14698309 19.26603146 -15.69140625 23.75390625 C-16.39974106 24.45845444 -17.10807587 25.16300262 -17.83787537 25.88890076 C-20.07697606 28.11590762 -22.3193057 30.33961704 -24.5625 32.5625 C-27.52509891 35.49833707 -30.4842542 38.43758395 -33.44140625 41.37890625 C-34.44476768 42.36982018 -34.44476768 42.36982018 -35.46839905 43.38075256 C-39.08149352 46.97512973 -42.44231147 50.62078203 -45.57481384 54.64512634 C-48.02481936 56.97425922 -50.76212336 56.93524247 -54 57 C-53.60167969 56.55269531 -53.20335937 56.10539062 -52.79296875 55.64453125 C-49.40122655 51.79467756 -49.40122655 51.79467756 -46.625 47.5 C-44.56284355 44.32745161 -41.99900381 42.25718671 -39.12109375 39.828125 C-35.90522009 37.05643278 -32.96970088 34.02976225 -30 31 C-26.52609965 27.51936873 -23.04003267 24.05117124 -19.55078125 20.5859375 C-18.00213672 19.04465801 -16.45396602 17.50290432 -14.90600586 15.9609375 C-13.83917957 14.89917811 -12.77146312 13.83831242 -11.70288086 12.77832031 C-10.14981938 11.23737913 -8.60000281 9.69323797 -7.05078125 8.1484375 C-6.12950439 7.23239746 -5.20822754 6.31635742 -4.2590332 5.37255859 C-1.88848895 3.01909856 -1.88848895 3.01909856 0 0 Z " fill="#E6E6E6" transform="translate(641,183)"/>
<path d="M0 0 C1.46003073 2.92006145 2 4.68190119 2 8 C0.51675694 9.97920245 -1.1558965 11.51561253 -2.9921875 13.171875 C-4.88412856 14.89449838 -6.48585258 16.66461264 -8.125 18.625 C-13.39118766 24.75072634 -19.25309285 30.33087054 -25 36 C-25.33 35.34 -25.66 34.68 -26 34 C-29.465 34.495 -29.465 34.495 -33 35 C-29.95196892 30.04530013 -26.40454961 26.13961885 -22.265625 22.0703125 C-21.62759949 21.43511688 -20.98957397 20.79992126 -20.33221436 20.14547729 C-18.30948828 18.13387395 -16.27989279 16.12936863 -14.25 14.125 C-12.87063265 12.75567266 -11.49172152 11.38588559 -10.11328125 10.015625 C-6.74744234 6.67174149 -3.3754281 3.33420247 0 0 Z " fill="#FDF2F0" transform="translate(396,182)"/>
<path d="M0 0 C2.0078125 0.23046875 2.0078125 0.23046875 5.0078125 2.23046875 C5.28634747 4.87655096 5.13973288 6.82271484 4.3203125 9.35546875 C4.165625 10.28359375 4.165625 10.28359375 4.0078125 11.23046875 C5.36225551 13.00237784 5.36225551 13.00237784 7.0078125 14.23046875 C7.0078125 13.57046875 7.0078125 12.91046875 7.0078125 12.23046875 C7.9978125 12.23046875 8.9878125 12.23046875 10.0078125 12.23046875 C10.3378125 11.57046875 10.6678125 10.91046875 11.0078125 10.23046875 C10.76745428 13.75572264 10.32119334 15.80902555 8.1953125 18.66796875 C3.27090992 21.08189159 -1.74054155 20.61742339 -6.9921875 19.23046875 C-9.34765625 17.37109375 -9.34765625 17.37109375 -10.9921875 15.23046875 C-11.2421875 11.98046875 -11.2421875 11.98046875 -10.9921875 9.23046875 C-10.0021875 8.90046875 -9.0121875 8.57046875 -7.9921875 8.23046875 C-7.8478125 7.09609375 -7.7034375 5.96171875 -7.5546875 4.79296875 C-6.66921361 -0.81503256 -5.36649885 0.10891418 0 0 Z " fill="#FDF1E7" transform="translate(414.9921875,279.76953125)"/>
<path d="M0 0 C1.14262802 -0.00014603 2.28525604 -0.00029205 3.46250916 -0.0004425 C7.20663408 0.00024933 10.95070808 0.00800735 14.69482422 0.01586914 C17.30370049 0.01773591 19.91257711 0.01915859 22.52145386 0.02015686 C28.66579979 0.02325173 34.81012771 0.03144001 40.95446575 0.04150635 C47.95577111 0.05272508 54.95707739 0.05819239 61.95838952 0.06320179 C76.34710655 0.07362437 90.73580849 0.09118773 105.12451172 0.11352539 C104.79451172 0.77352539 104.46451172 1.43352539 104.12451172 2.11352539 C103.48398235 2.11683554 102.84345299 2.12014568 102.18351364 2.12355614 C86.60153752 2.20475919 71.0196695 2.29684273 55.43783188 2.40105247 C47.90258567 2.45118475 40.36735038 2.49762758 32.83203125 2.53540039 C26.26462326 2.56833063 19.6972998 2.60816752 13.12998509 2.65631545 C9.65230119 2.68157025 6.17467329 2.70335449 2.6969223 2.71686935 C-1.18441273 2.73208194 -5.06554229 2.76271343 -8.94677734 2.79467773 C-10.10123856 2.79683792 -11.25569977 2.79899811 -12.44514465 2.80122375 C-13.50241257 2.81238724 -14.55968048 2.82355072 -15.64898682 2.83505249 C-17.02614553 2.84334863 -17.02614553 2.84334863 -18.43112564 2.85181236 C-21.00759483 3.12766978 -22.6559478 3.81020054 -24.87548828 5.11352539 C-25.53548828 4.45352539 -26.19548828 3.79352539 -26.87548828 3.11352539 C-18.82317257 -0.91263247 -8.77075549 -0.02980226 0 0 Z " fill="#FED1CC" transform="translate(201.87548828125,273.886474609375)"/>
<path d="M0 0 C2.25819196 0.01016091 4.51638608 0.01985256 6.77458191 0.02911377 C12.86656371 0.05541347 18.95849462 0.08822855 25.05043745 0.12226367 C31.43120028 0.15678768 37.81199017 0.18524993 44.19277954 0.21437073 C54.8900953 0.26400092 65.58738517 0.31732948 76.28466797 0.37353516 C87.29604984 0.43138093 98.30743935 0.48696649 109.31884766 0.53955078 C110.33936344 0.54442536 110.33936344 0.54442536 111.38049571 0.54939841 C114.79405897 0.56568977 118.20762244 0.58193709 121.62118602 0.59816253 C149.87721281 0.73252667 178.13319681 0.87466274 206.38916016 1.02172852 C206.38916016 1.35172852 206.38916016 1.68172852 206.38916016 2.02172852 C126.19916016 2.35172852 46.00916016 2.68172852 -36.61083984 3.02172852 C-36.61083984 2.36172852 -36.61083984 1.70172852 -36.61083984 1.02172852 C-24.39901384 -0.15220996 -12.25420713 -0.07642848 0 0 Z " fill="#FEEAE6" transform="translate(190.61083984375,175.978271484375)"/>
<path d="M0 0 C0 3 0 3 -1.3125 4.60546875 C-1.869375 5.12753906 -2.42625 5.64960938 -3 6.1875 C-3.556875 6.71730469 -4.11375 7.24710938 -4.6875 7.79296875 C-5.120625 8.19128906 -5.55375 8.58960938 -6 9 C-5.34 9.33 -4.68 9.66 -4 10 C-3.67 9.34 -3.34 8.68 -3 8 C-2.34 8.66 -1.68 9.32 -1 10 C-2.3921875 11.0828125 -2.3921875 11.0828125 -3.8125 12.1875 C-6.58673115 14.50263852 -8.43394082 16.69387506 -10 20 C-10 20.99 -10 21.98 -10 23 C19.04 23.33 48.08 23.66 78 24 C77.67 25.32 77.34 26.64 77 28 C76.505 26.515 76.505 26.515 76 25 C31.45 25.495 31.45 25.495 -14 26 C-14.66 24.35 -15.32 22.7 -16 21 C-17.65 21.66 -19.3 22.32 -21 23 C-17.06274207 18.29716414 -12.97244074 13.75534872 -8.8125 9.25 C-8.28946289 8.68321533 -7.76642578 8.11643066 -7.22753906 7.5324707 C-4.86039597 4.97642746 -2.47391742 2.45258663 0 0 Z " fill="#B1B1B1" transform="translate(594,230)"/>
<path d="M0 0 C0 0.99 0 1.98 0 3 C1.91064299 4.91064299 4.73827895 4.12014611 7.28016663 4.12442017 C8.18359299 4.12082489 9.08701935 4.11722961 10.01782227 4.11352539 C10.96406464 4.11367142 11.91030701 4.11381744 12.88522339 4.1139679 C16.02897392 4.11326836 19.17266601 4.10547409 22.31640625 4.09765625 C24.48974068 4.09579221 26.66307552 4.09436824 28.83641052 4.09336853 C34.56901195 4.08954221 40.30158823 4.07971097 46.03417969 4.06866455 C51.87890279 4.05845287 57.72362993 4.05387143 63.56835938 4.04882812 C75.045584 4.0380888 86.52278991 4.02101102 98 4 C98.33 3.01 98.66 2.02 99 1 C99.99 1.33 100.98 1.66 102 2 C100.74807739 3.47970581 100.74807739 3.47970581 99 5 C95.90692902 5.25303139 93.01941477 5.32360561 89.9296875 5.2578125 C89.0008223 5.25033493 88.07195709 5.24285736 87.11494446 5.2351532 C85.09491148 5.21813825 83.07492378 5.19487982 81.05502319 5.16616821 C77.85069438 5.12468534 74.64720449 5.10840237 71.44262695 5.1003418 C62.33048967 5.07643937 53.21924969 5.03566083 44.10791016 4.90771484 C38.53427622 4.83128189 32.9626037 4.80896237 27.38848877 4.82098389 C25.27062212 4.8153707 23.15270578 4.78983852 21.03533936 4.74346924 C7.80931278 4.09589725 7.80931278 4.09589725 -3.43547058 10.01823425 C-5.48648203 12.21726684 -7.29700869 14.52387467 -9 17 C-9.33 16.01 -9.66 15.02 -10 14 C-10.49628906 14.43570312 -10.99257813 14.87140625 -11.50390625 15.3203125 C-15.97819019 19.24273979 -20.47564042 23.13544286 -25 27 C-23.41568547 23.09148801 -20.73364905 20.47632644 -17.7734375 17.578125 C-17.26575836 17.07327576 -16.75807922 16.56842651 -16.23501587 16.04827881 C-14.61966158 14.44407904 -12.99747791 12.84699144 -11.375 11.25 C-10.27558302 10.16061893 -9.17661941 9.0707801 -8.078125 7.98046875 C-5.3906398 5.31498115 -2.69700979 2.65584857 0 0 Z " fill="#C7C7C7" transform="translate(568,257)"/>
<path d="M0 0 C0.36829422 0.64874084 0.73658844 1.29748169 1.11604309 1.96588135 C2.9532114 4.37710679 2.9532114 4.37710679 6.58769226 4.51898193 C8.10597423 4.54834767 9.62477587 4.55564145 11.14331055 4.54589844 C11.97280212 4.55623611 12.8022937 4.56657379 13.65692139 4.57722473 C16.40038335 4.60673727 19.14311027 4.60815366 21.88671875 4.609375 C23.78816645 4.62435097 25.68960111 4.64107688 27.59101868 4.65948486 C32.59693995 4.70323617 37.60268575 4.72317468 42.60876465 4.73822021 C47.71649587 4.7577633 52.8240368 4.7997364 57.93164062 4.83984375 C67.9543685 4.9152301 77.97705395 4.96547052 88 5 C88 5.66 88 6.32 88 7 C57.64 7 27.28 7 -4 7 C-4.33 5.35 -4.66 3.7 -5 2 C-2 0 -2 0 0 0 Z " fill="#F3F3F3" transform="translate(578,251)"/>
<path d="M0 0 C0.74424953 -0.00085442 1.48849905 -0.00170885 2.25530159 -0.00258917 C4.73802578 -0.00423043 7.22068174 0.00125516 9.70339966 0.00672913 C11.48751321 0.00701132 13.27162687 0.00685264 15.05574036 0.00628662 C19.89201787 0.00599989 24.72827055 0.01187662 29.56454229 0.01886058 C34.6214164 0.02511472 39.67829108 0.02569955 44.73516846 0.02688599 C54.30791009 0.02999322 63.88064029 0.03819843 73.45337689 0.04823548 C84.35294435 0.05941548 95.25251235 0.06491182 106.15208411 0.06993091 C128.57040006 0.08038153 150.98870586 0.09796922 173.40701294 0.12025452 C173.40701294 0.45025452 173.40701294 0.78025452 173.40701294 1.12025452 C172.52333636 1.12448646 171.63965979 1.1287184 170.72920513 1.13307858 C149.24757423 1.23629182 127.76597667 1.34491551 106.2844038 1.45959377 C95.89616719 1.51491976 85.50792715 1.56840075 75.11965942 1.61756897 C66.06740046 1.66041844 57.01516672 1.70669838 47.96294671 1.75713307 C43.16793981 1.78372783 38.3729379 1.80858079 33.57790184 1.82932854 C29.06769904 1.84889796 24.55754422 1.87304271 20.04738426 1.90074539 C18.38933177 1.91011419 16.73126875 1.91779009 15.07320023 1.92367363 C12.81460119 1.93193769 10.55611852 1.94621522 8.29756165 1.96203613 C6.39912899 1.97171496 6.39912899 1.97171496 4.46234417 1.98158932 C1.36409618 1.98295389 1.36409618 1.98295389 -1.59298706 3.12025452 C-3.27755806 3.23765574 -4.96687583 3.29531997 -6.65548706 3.30775452 C-7.9722644 3.32902405 -7.9722644 3.32902405 -9.31564331 3.35072327 C-11.59298706 3.12025452 -11.59298706 3.12025452 -13.59298706 1.12025452 C-9.03234686 0.23088702 -4.63092229 -0.01964101 0 0 Z " fill="#FFEAE8" transform="translate(181.59298706054688,223.87974548339844)"/>
<path d="M0 0 C0.99 0.99 1.98 1.98 3 3 C3.99 2.01 4.98 1.02 6 0 C6.33 1.98 6.66 3.96 7 6 C7.99 6.33 8.98 6.66 10 7 C10.144375 6.195625 10.28875 5.39125 10.4375 4.5625 C11 2 11 2 12 1 C13.66617115 0.95936168 15.33388095 0.957279 17 1 C17 1.66 17 2.32 17 3 C15.68 3.33 14.36 3.66 13 4 C13.99 4.66 14.98 5.32 16 6 C14.68 6 13.36 6 12 6 C12 6.66 12 7.32 12 8 C13.65 8 15.3 8 17 8 C16.67 8.66 16.34 9.32 16 10 C14.41676312 10.027193 12.83338938 10.04648306 11.25 10.0625 C9.92742188 10.07990234 9.92742188 10.07990234 8.578125 10.09765625 C6.2181162 10.00826198 4.25501476 9.66912821 2 9 C2 8.34 2 7.68 2 7 C1.01 7 0.02 7 -1 7 C-1.33 7.99 -1.66 8.98 -2 10 C-3.32 9.67 -4.64 9.34 -6 9 C-6 8.01 -6 7.02 -6 6 C-6.66 5.67 -7.32 5.34 -8 5 C-7.34 5 -6.68 5 -6 5 C-6 4.34 -6 3.68 -6 3 C-6.99 3 -7.98 3 -9 3 C-9 4.98 -9 6.96 -9 9 C-11.64 9 -14.28 9 -17 9 C-17 6.36 -17 3.72 -17 1 C-14.66666667 1 -12.33333333 1 -10 1 C-9.154375 0.979375 -8.30875 0.95875 -7.4375 0.9375 C-5 1 -5 1 -4 2 C-3.95936168 3.66617115 -3.957279 5.33388095 -4 7 C-3.34 7 -2.68 7 -2 7 C-2.04125 6.21625 -2.0825 5.4325 -2.125 4.625 C-2 2 -2 2 0 0 Z " fill="#0F0F0F" transform="translate(657,231)"/>
<path d="M0 0 C0.33 0.99 0.66 1.98 1 3 C-0.8125 5.6875 -0.8125 5.6875 -3 8 C-3.66 8 -4.32 8 -5 8 C-5.33 8.99 -5.66 9.98 -6 11 C-6.99 11.33 -7.98 11.66 -9 12 C-9.33 12.66 -9.66 13.32 -10 14 C13.1 14 36.2 14 60 14 C59.67 14.66 59.34 15.32 59 16 C35.57 16 12.14 16 -12 16 C-10.92140208 10.60701041 -9.24351078 8.74642893 -5.4375 5.1875 C-4.91736328 4.68541016 -4.39722656 4.18332031 -3.86132812 3.66601562 C-2.5831143 2.43470873 -1.29272853 1.2160593 0 0 Z " fill="#D91D1F" transform="translate(306,285)"/>
<path d="M0 0 C0.71259476 -0.00058411 1.42518951 -0.00116821 2.15937805 -0.00177002 C4.50811966 0.00101047 6.85558247 0.03209834 9.20410156 0.06347656 C10.83505561 0.07093914 12.46601864 0.07663199 14.09698486 0.08062744 C18.38471333 0.09588264 22.67189775 0.13516302 26.95941162 0.17944336 C31.33647299 0.22039879 35.71362247 0.23863901 40.09082031 0.25878906 C48.67570509 0.30165779 57.2601481 0.36990721 65.84472656 0.45410156 C62.56551624 4.95756082 59.29940843 9.2523861 55.32128906 13.17285156 C54.13212891 14.35234375 54.13212891 14.35234375 52.91894531 15.55566406 C52.11070312 16.34714844 51.30246094 17.13863281 50.46972656 17.95410156 C49.22255859 19.18773437 49.22255859 19.18773437 47.95019531 20.44628906 C45.91956674 22.45357707 43.8843949 24.4560069 41.84472656 26.45410156 C41.34972656 24.96910156 41.34972656 24.96910156 40.84472656 23.45410156 C41.50472656 23.45410156 42.16472656 23.45410156 42.84472656 23.45410156 C42.92722656 22.87660156 43.00972656 22.29910156 43.09472656 21.70410156 C44.07070857 18.77615555 45.47983879 17.4016562 47.84472656 15.45410156 C48.83472656 15.45410156 49.82472656 15.45410156 50.84472656 15.45410156 C51.27785156 14.52597656 51.27785156 14.52597656 51.71972656 13.57910156 C52.84472656 11.45410156 52.84472656 11.45410156 54.84472656 9.45410156 C55.48725006 7.38536122 55.48725006 7.38536122 55.84472656 5.45410156 C56.50472656 5.45410156 57.16472656 5.45410156 57.84472656 5.45410156 C57.84472656 4.13410156 57.84472656 2.81410156 57.84472656 1.45410156 C49.82976582 1.51533382 41.81518218 1.59245444 33.8005867 1.68981647 C30.07899392 1.73452837 26.35751082 1.77378237 22.63574219 1.80053711 C19.04344044 1.82656242 15.45156054 1.86695848 11.85951996 1.91728783 C10.48966472 1.93396194 9.1197365 1.94547287 7.74979401 1.95171547 C5.82982313 1.96134965 3.90998524 1.99110778 1.99023438 2.02172852 C0.35142303 2.0383831 0.35142303 2.0383831 -1.32049561 2.05537415 C-4.49430052 2.50178762 -5.68591094 3.52276791 -8.15527344 5.45410156 C-9.14527344 5.12410156 -10.13527344 4.79410156 -11.15527344 4.45410156 C-7.76827153 0.15355038 -5.35412631 -0.03692501 0 0 Z " fill="#DB1917" transform="translate(416.1552734375,177.5458984375)"/>
<path d="M0 0 C3.96 0 7.92 0 12 0 C12.66 1.65 13.32 3.3 14 5 C14.33 3.68 14.66 2.36 15 1 C16.66666667 1 18.33333333 1 20 1 C21.33568021 0.67619874 22.66923011 0.34342449 24 0 C23.95875 0.763125 23.9175 1.52625 23.875 2.3125 C23.77919176 5.22718416 23.77919176 5.22718416 26 8 C23.69 8 21.38 8 19 8 C19 7.34 19 6.68 19 6 C18.01 6 17.02 6 16 6 C16 6.66 16 7.32 16 8 C14.68 8 13.36 8 12 8 C12 7.34 12 6.68 12 6 C11.505 6.33 11.01 6.66 10.5 7 C6.90909106 8.43636358 3.85543873 8.12851462 0 8 C-1.43088528 5.13822943 -0.59991697 3.06624227 0 0 Z " fill="#121212" transform="translate(552,195)"/>
<path d="M0 0 C0.33 0.66 0.66 1.32 1 2 C0.67 2.66 0.34 3.32 0 4 C20.46 4 40.92 4 62 4 C62 3.34 62 2.68 62 2 C62.99 2.33 63.98 2.66 65 3 C63.89421082 4.47871399 63.89421082 4.47871399 62 6 C59.17158508 6.36076355 59.17158508 6.36076355 55.69262695 6.34057617 C54.39150467 6.34034958 53.09038239 6.34012299 51.74983215 6.33988953 C50.3293117 6.32456952 48.90879474 6.30892153 47.48828125 6.29296875 C46.03525734 6.28737276 44.58222776 6.28310267 43.12919617 6.28010559 C39.30679671 6.26865695 35.4847398 6.23918999 31.66247559 6.20599365 C27.76135899 6.17529295 23.86018698 6.16160028 19.95898438 6.14648438 C12.3058335 6.11431998 4.65296477 6.06312383 -3 6 C-2.42655063 3.13275314 -2.1385485 2.1385485 0 0 Z " fill="#D71716" transform="translate(15,295)"/>
<path d="M0 0 C0 3 0 3 -1 6 C17.81 6 36.62 6 56 6 C55.67 6.66 55.34 7.32 55 8 C35.53 8 16.06 8 -4 8 C-4 4 -4 4 -2 1.75 C-1.01 0.88375 -1.01 0.88375 0 0 Z " fill="#D72626" transform="translate(96,293)"/>
<path d="M0 0 C1.258125 -0.04125 2.51625 -0.0825 3.8125 -0.125 C4.52019531 -0.14820313 5.22789062 -0.17140625 5.95703125 -0.1953125 C8 0 8 0 11 2 C11.27028856 4.56774135 11.11636111 6.5733426 10.4375 9.0625 C9.91957523 11.35616685 10.2883622 12.78601575 11 15 C9.0625 14.6875 9.0625 14.6875 7 14 C6.67 13.01 6.34 12.02 6 11 C5.01 10.67 4.02 10.34 3 10 C3 11.65 3 13.3 3 15 C2.01 15 1.02 15 0 15 C0 10.05 0 5.1 0 0 Z " fill="#C86150" transform="translate(409,280)"/>
<path d="M0 0 C0.33 0.99 0.66 1.98 1 3 C1.33 2.01 1.66 1.02 2 0 C5.875 0.875 5.875 0.875 7 2 C7.33 1.34 7.66 0.68 8 0 C9.32 0.33 10.64 0.66 12 1 C11.67 2.32 11.34 3.64 11 5 C10.34 4.67 9.68 4.34 9 4 C8.67 4.66 8.34 5.32 8 6 C7.01 6 6.02 6 5 6 C5 5.01 5 4.02 5 3 C4.34 3 3.68 3 3 3 C3 4.65 3 6.3 3 8 C1.52093108 8.02689216 0.04172517 8.04634621 -1.4375 8.0625 C-2.67306641 8.07990234 -2.67306641 8.07990234 -3.93359375 8.09765625 C-6 8 -6 8 -7 7 C-7.04063832 5.33382885 -7.042721 3.66611905 -7 2 C-8.32 2.33 -9.64 2.66 -11 3 C-11.22609337 5.12364481 -11.22609337 5.12364481 -9.5 6.625 C-9.005 7.07875 -8.51 7.5325 -8 8 C-9.65 8.33 -11.3 8.66 -13 9 C-13.38063221 6.6739143 -13.71269945 4.33944736 -14 2 C-11.28656037 -0.71343963 -3.70523981 -0.11578874 0 0 Z " fill="#121212" transform="translate(692,232)"/>
<path d="M0 0 C0.33 0.66 0.66 1.32 1 2 C-0.8992769 5.82809278 -3.36476167 8.58118356 -6.4140625 11.5390625 C-7.25710938 12.36664063 -8.10015625 13.19421875 -8.96875 14.046875 C-9.8453125 14.89765625 -10.721875 15.7484375 -11.625 16.625 C-13.37175481 18.32082901 -15.11416822 20.0211448 -16.8515625 21.7265625 C-18.00906006 22.84925537 -18.00906006 22.84925537 -19.18994141 23.99462891 C-21.21075931 25.96410662 -21.21075931 25.96410662 -22 29 C-22.66 29 -23.32 29 -24 29 C-23.79030937 23.02381703 -22.77200143 19.98161211 -18.765625 15.54296875 C-17 14 -17 14 -14.62109375 12.62109375 C-11.54274593 10.71719756 -9.32120544 8.4785884 -6.8125 5.875 C-2.19354839 1.09677419 -2.19354839 1.09677419 0 0 Z " fill="#E9E9E9" transform="translate(558,270)"/>
<path d="M0 0 C1.48693359 0.00386719 1.48693359 0.00386719 3.00390625 0.0078125 C3.99261719 0.00523437 4.98132813 0.00265625 6 0 C8.56640625 0.1328125 8.56640625 0.1328125 10.56640625 1.1328125 C10.56640625 2.4528125 10.56640625 3.7728125 10.56640625 5.1328125 C11.55640625 3.4828125 12.54640625 1.8328125 13.56640625 0.1328125 C14.55640625 0.4628125 15.54640625 0.7928125 16.56640625 1.1328125 C16.89640625 3.4428125 17.22640625 5.7528125 17.56640625 8.1328125 C16.90640625 8.1328125 16.24640625 8.1328125 15.56640625 8.1328125 C15.56640625 7.4728125 15.56640625 6.8128125 15.56640625 6.1328125 C14.90640625 6.1328125 14.24640625 6.1328125 13.56640625 6.1328125 C13.23640625 6.7928125 12.90640625 7.4528125 12.56640625 8.1328125 C8.56640625 8.1328125 8.56640625 8.1328125 6.81640625 6.6328125 C6.19765625 5.8903125 6.19765625 5.8903125 5.56640625 5.1328125 C5.56640625 6.1228125 5.56640625 7.1128125 5.56640625 8.1328125 C2.59640625 8.1328125 -0.37359375 8.1328125 -3.43359375 8.1328125 C-3.47601098 5.79986475 -3.47452312 3.46578683 -3.43359375 1.1328125 C-2.43359375 0.1328125 -2.43359375 0.1328125 0 0 Z " fill="#101010" transform="translate(586.43359375,279.8671875)"/>
<path d="M0 0 C0 3 0 3 -1.3125 4.60546875 C-1.869375 5.12753906 -2.42625 5.64960938 -3 6.1875 C-3.556875 6.71730469 -4.11375 7.24710938 -4.6875 7.79296875 C-5.120625 8.19128906 -5.55375 8.58960938 -6 9 C-5.34 9.33 -4.68 9.66 -4 10 C-3.67 9.34 -3.34 8.68 -3 8 C-2.34 8.66 -1.68 9.32 -1 10 C-1.886875 10.721875 -2.77375 11.44375 -3.6875 12.1875 C-9.87120604 17.2713621 -9.87120604 17.2713621 -14 24 C-13.34 24.33 -12.68 24.66 -12 25 C-12.99 25 -13.98 25 -15 25 C-15.33 23.68 -15.66 22.36 -16 21 C-17.65 21.66 -19.3 22.32 -21 23 C-17.06274207 18.29716414 -12.97244074 13.75534872 -8.8125 9.25 C-8.28946289 8.68321533 -7.76642578 8.11643066 -7.22753906 7.5324707 C-4.86039597 4.97642746 -2.47391742 2.45258663 0 0 Z " fill="#BCBCBC" transform="translate(594,230)"/>
<path d="M0 0 C0.99 0.33 1.98 0.66 3 1 C1.44377015 2.83989136 0.53693571 3.89391718 -1.86841106 4.36914349 C-2.5735827 4.36637811 -3.27875433 4.36361273 -4.0052948 4.36076355 C-4.81717758 4.36488754 -5.62906036 4.36901154 -6.46554565 4.3732605 C-7.35243073 4.36247467 -8.2393158 4.35168884 -9.15307617 4.34057617 C-10.08985703 4.34101425 -11.02663788 4.34145233 -11.99180603 4.34190369 C-15.09240462 4.33981139 -18.19246446 4.31645931 -21.29296875 4.29296875 C-23.44102177 4.28737437 -25.58907862 4.28310353 -27.73713684 4.28010559 C-33.39418076 4.26864441 -39.05099406 4.23916613 -44.70794678 4.20599365 C-50.47909424 4.17532029 -56.25027892 4.1616061 -62.02148438 4.14648438 C-73.34775764 4.11429777 -84.67385965 4.06308592 -96 4 C-96 3.67 -96 3.34 -96 3 C-64.65 3 -33.3 3 -1 3 C-0.67 2.01 -0.34 1.02 0 0 Z " fill="#8F8F8F" transform="translate(667,258)"/>
<path d="M0 0 C1.64574566 -0.02688151 3.29161413 -0.04634123 4.9375 -0.0625 C5.85402344 -0.07410156 6.77054688 -0.08570313 7.71484375 -0.09765625 C10 0 10 0 11 1 C11.04063832 2.66617115 11.042721 4.33388095 11 6 C11.66 6 12.32 6 13 6 C13 4.35 13 2.7 13 1 C13.33 1 13.66 1 14 1 C14 3.31 14 5.62 14 8 C12.68 8 11.36 8 10 8 C9.67 6.68 9.34 5.36 9 4 C8.67 5.32 8.34 6.64 8 8 C5.03 8 2.06 8 -1 8 C-1.125 2.25 -1.125 2.25 0 0 Z " fill="#070707" transform="translate(624,232)"/>
<path d="M0 0 C0.495 0.99 0.495 0.99 1 2 C-0.10281127 3.27200971 -1.20730769 4.54255853 -2.3125 5.8125 C-2.92738281 6.52019531 -3.54226562 7.22789062 -4.17578125 7.95703125 C-5.07876953 8.96830078 -5.07876953 8.96830078 -6 10 C-6.61516228 10.79516777 -6.61516228 10.79516777 -7.24275208 11.60639954 C-9.79685513 13.63195276 -11.70984219 13.36055768 -14.94018555 13.34057617 C-16.16122482 13.34034958 -17.3822641 13.34012299 -18.64030457 13.33988953 C-20.61852959 13.31666374 -20.61852959 13.31666374 -22.63671875 13.29296875 C-24.00006138 13.28737243 -25.36341004 13.2831025 -26.72676086 13.28010559 C-30.31243592 13.26865949 -33.89774554 13.23919486 -37.48327637 13.20599365 C-41.1430975 13.17528739 -44.80297777 13.1615991 -48.46289062 13.14648438 C-55.64209356 13.11432449 -62.82099554 13.06313153 -70 13 C-70 12.67 -70 12.34 -70 12 C-68.92790535 12.01784798 -68.92790535 12.01784798 -67.83415222 12.03605652 C-61.05319043 12.13903437 -54.27367352 12.1881352 -47.49199963 12.17878246 C-44.00607419 12.17582021 -40.52273704 12.19268833 -37.03735352 12.25708008 C-19.92780573 13.47340465 -19.92780573 13.47340465 -5.00642395 6.98176575 C-3.05565137 4.80297108 -1.44472881 2.53987994 0 0 Z " fill="#FFE4E5" transform="translate(162,289)"/>
<path d="M0 0 C24.75 0 49.5 0 75 0 C74.67 1.65 74.34 3.3 74 5 C71.9375 6.3125 71.9375 6.3125 70 7 C70.99 5.35 71.98 3.7 73 2 C48.91 2 24.82 2 0 2 C0 1.34 0 0.68 0 0 Z " fill="#FEDCD6" transform="translate(408,177)"/>
<path d="M0 0 C3.63 0 7.26 0 11 0 C11.66 1.65 12.32 3.3 13 5 C13.33 3.35 13.66 1.7 14 0 C14.33 0 14.66 0 15 0 C15 2.31 15 4.62 15 7 C13.0625 6.6875 13.0625 6.6875 11 6 C10.67 5.01 10.34 4.02 10 3 C9.67 4.32 9.34 5.64 9 7 C6.03 7 3.06 7 0 7 C0 4.69 0 2.38 0 0 Z " fill="#101010" transform="translate(535,196)"/>
<path d="M0 0 C0 7.12414461 -9.82846624 13.94612907 -14.5703125 18.703125 C-16.94940646 20.95217203 -19.41436407 22.9940618 -22 25 C-22.66 24.67 -23.32 24.34 -24 24 C-21.50649333 21.30641391 -19.00401126 18.62132058 -16.5 15.9375 C-15.80390625 15.18533203 -15.1078125 14.43316406 -14.390625 13.65820312 C-9.83680926 8.78815018 -5.10887591 4.28461414 0 0 Z " fill="#E61B1C" transform="translate(147,241)"/>
<path d="M0 0 C0 0.99 0 1.98 0 3 C-2.64738916 4.4606285 -3.89448334 5 -7 5 C-7 5.66 -7 6.32 -7 7 C-5.68 7 -4.36 7 -3 7 C-3 7.99 -3 8.98 -3 10 C-3.99 10 -4.98 10 -6 10 C-6.66 11.32 -7.32 12.64 -8 14 C-8.66 14 -9.32 14 -10 14 C-11.47164835 6.7643956 -11.47164835 6.7643956 -9.1875 3.0625 C-5.98623518 0.0441646 -4.30180747 -0.11320546 0 0 Z " fill="#111111" transform="translate(583,228)"/>
<path d="M0 0 C0.495 1.485 0.495 1.485 1 3 C-2.58516028 5.39010685 -4.14266967 5.24326602 -8.39916992 5.22705078 C-9.04334366 5.22734283 -9.6875174 5.22763489 -10.35121155 5.22793579 C-12.47776823 5.22654384 -14.60397337 5.21098938 -16.73046875 5.1953125 C-18.20591541 5.19158188 -19.68136455 5.18873514 -21.15681458 5.18673706 C-25.03830822 5.17910442 -28.91965196 5.15945917 -32.80108643 5.1373291 C-36.76255261 5.11686269 -40.72404305 5.10773365 -44.68554688 5.09765625 C-52.45709956 5.07621286 -60.22852877 5.04208145 -68 5 C-68 4.67 -68 4.34 -68 4 C-67.19233688 3.99413376 -66.38467377 3.98826752 -65.55253601 3.98222351 C-57.94501422 3.92434532 -50.33782177 3.85229728 -42.73059368 3.76428509 C-38.81952152 3.71953685 -34.90855459 3.68029089 -30.99731445 3.65356445 C-27.22347912 3.62757539 -23.45004781 3.5872051 -19.67646217 3.53681374 C-18.23600091 3.52011506 -16.79546972 3.50861947 -15.35492516 3.50238609 C-13.33896226 3.49277852 -11.32312559 3.46303898 -9.30737305 3.43237305 C-7.58528877 3.41571846 -7.58528877 3.41571846 -5.82841492 3.39872742 C-2.96908667 3.24217682 -2.96908667 3.24217682 -1.10578918 1.47297668 C-0.74087875 0.98689438 -0.37596832 0.50081207 0 0 Z " fill="#FFE2DD" transform="translate(80,297)"/>
<path d="M0 0 C0.66 0 1.32 0 2 0 C2 0.66 2 1.32 2 2 C0.49609375 3.4453125 0.49609375 3.4453125 -1.5625 5.125 C-5.83244364 8.74615362 -9.37478772 12.75128683 -13 17 C-16.23195858 20.61671555 -18.07844679 22.57815258 -23 23 C-16.73912303 15.48694764 -9.98466851 8.7206839 -2.56640625 2.34765625 C-1.68751602 1.59150381 -0.81982149 0.81982149 0 0 Z " fill="#E41D18" transform="translate(111,197)"/>
<path d="M0 0 C0 3 0 3 -1 6 C-1.06740865 7.56118428 -1.08514456 9.1250252 -1.0625 10.6875 C-1.05347656 11.49574219 -1.04445313 12.30398438 -1.03515625 13.13671875 C-1.02355469 13.75160156 -1.01195312 14.36648438 -1 15 C-3.31 14.67 -5.62 14.34 -8 14 C-8 13.01 -8 12.02 -8 11 C-8.66 10.67 -9.32 10.34 -10 10 C-6.7 6.7 -3.4 3.4 0 0 Z " fill="#161616" transform="translate(558,274)"/>
<path d="M0 0 C0.33 0.66 0.66 1.32 1 2 C0.67 2.99 0.34 3.98 0 5 C-0.66 5 -1.32 5 -2 5 C-2.21914063 5.54269531 -2.43828125 6.08539063 -2.6640625 6.64453125 C-4.44470987 9.78409373 -6.8353582 12.16456637 -9.375 14.6875 C-9.85710938 15.18572266 -10.33921875 15.68394531 -10.8359375 16.19726562 C-13.39323992 18.75804264 -15.31046316 20.62405193 -19 21 C-13.57499556 13.09499354 -6.84261278 6.65987238 0 0 Z " fill="#E81817" transform="translate(38,271)"/>
<path d="M0 0 C0 0.99 0 1.98 0 3 C-0.969375 3.28875 -1.93875 3.5775 -2.9375 3.875 C-6.10664203 4.64214682 -6.10664203 4.64214682 -7 7 C-5.35 7 -3.7 7 -2 7 C-3.375 8.5 -3.375 8.5 -5 10 C-5.66 10 -6.32 10 -7 10 C-7 11.32 -7 12.64 -7 14 C-7.99 13.67 -8.98 13.34 -10 13 C-11.46666667 6.76666667 -11.46666667 6.76666667 -9.25 3.125 C-6.07149995 0.12308329 -4.38339993 0 0 0 Z " fill="#131313" transform="translate(526,276)"/>
<path d="M0 0 C-1.24546405 3.73639216 -2.63404953 4.18756513 -6 6 C-5.01 6.33 -4.02 6.66 -3 7 C-3.33 7.99 -3.66 8.98 -4 10 C-4.99 10.33 -5.98 10.66 -7 11 C-7.33 11.66 -7.66 12.32 -8 13 C-8.66 13 -9.32 13 -10 13 C-11.462958 10.074084 -11.44523109 8.24382653 -11 5 C-7.55436943 1.3139766 -5.15520816 -0.75811885 0 0 Z " fill="#111111" transform="translate(495,191)"/>
<path d="M0 0 C3 2 3 2 3.6875 4.125 C3.8421875 5.053125 3.8421875 5.053125 4 6 C4.33 4.35 4.66 2.7 5 1 C5.33 1 5.66 1 6 1 C6 3.97 6 6.94 6 10 C5.01 10 4.02 10 3 10 C2.34 8.35 1.68 6.7 1 5 C0.01 5.66 -0.98 6.32 -2 7 C-4.6875 6.625 -4.6875 6.625 -7 6 C-7.33 5.01 -7.66 4.02 -8 3 C-8.33 4.32 -8.66 5.64 -9 7 C-9 5.35 -9 3.7 -9 2 C-8.071875 1.855625 -7.14375 1.71125 -6.1875 1.5625 C-2.99274889 1.07899889 -2.99274889 1.07899889 0 0 Z " fill="#131313" transform="translate(575,279)"/>
<path d="M0 0 C1 1 1 1 1.125 3.3125 C1 6 1 6 0.4375 8.0625 C-0.08042477 10.35616685 0.2883622 11.78601575 1 14 C-0.32 13.67 -1.64 13.34 -3 13 C-3.33 11.35 -3.66 9.7 -4 8 C-5.32 7.67 -6.64 7.34 -8 7 C-6.02 7 -4.04 7 -2 7 C-2.33 5.35 -2.66 3.7 -3 2 C-4.65 1.67 -6.3 1.34 -8 1 C-8 2.65 -8 4.3 -8 6 C-8.33 6 -8.66 6 -9 6 C-9 4.02 -9 2.04 -9 0 C-5.90842747 -1.54578627 -3.31526981 -0.60277633 0 0 Z " fill="#B94231" transform="translate(419,281)"/>
<path d="M0 0 C0.33 0.66 0.66 1.32 1 2 C-1 5 -1 5 -4 6 C-4.33 6.99 -4.66 7.98 -5 9 C-6.4375 10.5625 -6.4375 10.5625 -8 12 C-8.66 12.66 -9.32 13.32 -10 14 C-12 15.66666667 -14 17.33333333 -16 19 C-16.66 19.66 -17.32 20.32 -18 21 C-18.66 20.34 -19.32 19.68 -20 19 C-17.42081872 16.39169315 -14.83594303 13.78910186 -12.25 11.1875 C-11.52039063 10.44951172 -10.79078125 9.71152344 -10.0390625 8.95117188 C-9.33007812 8.23896484 -8.62109375 7.52675781 -7.890625 6.79296875 C-7.24125977 6.1383667 -6.59189453 5.48376465 -5.92285156 4.80932617 C-4.04205494 3.03957201 -2.09529866 1.50625069 0 0 Z " fill="#FEF0EE" transform="translate(144,234)"/>
<path d="M0 0 C0.66 0 1.32 0 2 0 C3.54586876 3.09173752 3.29359521 5.59429552 3 9 C1.4375 11.4375 1.4375 11.4375 -1 13 C-4.75 13.25 -4.75 13.25 -8 13 C-5.88929795 9.83394693 -4.26460973 8.80412643 -1 7 C-1.33 5.35 -1.66 3.7 -2 2 C-1.34 2 -0.68 2 0 2 C0 1.34 0 0.68 0 0 Z " fill="#121212" transform="translate(528,279)"/>
<path d="M0 0 C0.703125 1.765625 0.703125 1.765625 1 4 C-0.328125 5.921875 -0.328125 5.921875 -2.25 7.75 C-2.87390625 8.36359375 -3.4978125 8.9771875 -4.140625 9.609375 C-6 11 -6 11 -9 11 C-9.28875 11.78375 -9.5775 12.5675 -9.875 13.375 C-11 16 -11 16 -13 18 C-13.99 17.67 -14.98 17.34 -16 17 C-13.52110175 14.35391507 -11.04183636 11.70817443 -8.5625 9.0625 C-7.85544922 8.30775391 -7.14839844 7.55300781 -6.41992188 6.77539062 C-5.40961914 5.69741211 -5.40961914 5.69741211 -4.37890625 4.59765625 C-3.7557251 3.93258057 -3.13254395 3.26750488 -2.49047852 2.58227539 C-1.6705087 1.71180457 -0.8455974 0.8455974 0 0 Z " fill="#E91D23" transform="translate(375,213)"/>
<path d="M0 0 C0.66 0 1.32 0 2 0 C3.49297212 2.98594424 3.11755228 5.70853624 3 9 C2.67 9.66 2.34 10.32 2 11 C1.34 11 0.68 11 0 11 C0 11.66 0 12.32 0 13 C-2.64 13 -5.28 13 -8 13 C-7.67 12.01 -7.34 11.02 -7 10 C-3.9375 8.8125 -3.9375 8.8125 -1 8 C-0.67 5.36 -0.34 2.72 0 0 Z " fill="#121212" transform="translate(497,194)"/>
<path d="M0 0 C1.4540625 0.0309375 1.4540625 0.0309375 2.9375 0.0625 C2.9375 2.7025 2.9375 5.3425 2.9375 8.0625 C0.93795254 8.10504356 -1.06291636 8.10330783 -3.0625 8.0625 C-4.0625 7.0625 -4.0625 7.0625 -4.1875 4.0625 C-4.02164894 0.08207447 -4.02164894 0.08207447 0 0 Z " fill="#191919" transform="translate(601.0625,194.9375)"/>
<path d="M0 0 C0.66 0.33 1.32 0.66 2 1 C2 1.66 2 2.32 2 3 C2.99 3 3.98 3 5 3 C4.36191406 3.61488281 3.72382812 4.22976563 3.06640625 4.86328125 C1.82697266 6.07564453 1.82697266 6.07564453 0.5625 7.3125 C-0.67306641 8.51326172 -0.67306641 8.51326172 -1.93359375 9.73828125 C-4.19403477 11.90470808 -4.19403477 11.90470808 -5 15 C-5.66 15 -6.32 15 -7 15 C-6.75648872 8.05992846 -4.93291958 4.82732192 0 0 Z " fill="#D2D1D2" transform="translate(541,284)"/>
<path d="M0 0 C2.69082872 0.17635452 5.32851446 0.61835921 8 1 C7.67 1.99 7.34 2.98 7 4 C6.34 4 5.68 4 5 4 C4.71125 4.639375 4.4225 5.27875 4.125 5.9375 C3 8 3 8 1 9 C0.34 8.67 -0.32 8.34 -1 8 C-1.04241723 5.66705225 -1.04092937 3.33297433 -1 1 C-0.67 0.67 -0.34 0.34 0 0 Z " fill="#171717" transform="translate(536,280)"/>
<path d="M0 0 C6.75 -0.125 6.75 -0.125 9 1 C9 3.64 9 6.28 9 9 C8.34 8.67 7.68 8.34 7 8 C6.375 5.4375 6.375 5.4375 6 3 C5.67 3.33 5.34 3.66 5 4 C3.66666667 5.33333333 2.33333333 6.66666667 1 8 C0.01 7.67 -0.98 7.34 -2 7 C-1.34 4.69 -0.68 2.38 0 0 Z " fill="#151515" transform="translate(505,195)"/>
<path d="M0 0 C0.33 0.66 0.66 1.32 1 2 C1.66 2 2.32 2 3 2 C1.61811547 5.21043882 0.07578097 7.04936365 -2.625 9.25 C-3.25664063 9.77078125 -3.88828125 10.2915625 -4.5390625 10.828125 C-5.02117188 11.21484375 -5.50328125 11.6015625 -6 12 C-7 9 -7 9 -5.8125 6 C-4.08353838 3.13827041 -2.80044545 1.73820752 0 0 Z " fill="#DFDFDF" transform="translate(617,208)"/>
<path d="M0 0 C1.98 0 3.96 0 6 0 C6.66 1.65 7.32 3.3 8 5 C8.33 3.35 8.66 1.7 9 0 C9.33 0 9.66 0 10 0 C10 2.31 10 4.62 10 7 C9.01 7.495 9.01 7.495 8 8 C7.34 7.67 6.68 7.34 6 7 C5.375 4.9375 5.375 4.9375 5 3 C4.67 4.32 4.34 5.64 4 7 C2.68 7 1.36 7 0 7 C0 4.69 0 2.38 0 0 Z " fill="#191919" transform="translate(516,196)"/>
<path d="M0 0 C0 0.99 0 1.98 0 3 C0.99 4.485 0.99 4.485 2 6 C1.75 8.125 1.75 8.125 1 10 C0.01 10.495 0.01 10.495 -1 11 C-1 10.34 -1 9.68 -1 9 C-3.31 9.33 -5.62 9.66 -8 10 C-5.61820737 6.25718301 -3.25524265 3.02272532 0 0 Z " fill="#FEEBE7" transform="translate(371,207)"/>
<path d="M0 0 C1 3 1 3 0.3125 5 C-1.25764334 7.39259938 -2.53186696 8.5350707 -5 10 C-7.91015625 10.14453125 -7.91015625 10.14453125 -11.0625 9.8125 C-12.10535156 9.71582031 -13.14820313 9.61914062 -14.22265625 9.51953125 C-17 9 -17 9 -20 7 C-19.67 6.01 -19.34 5.02 -19 4 C-18.2884375 4.7425 -18.2884375 4.7425 -17.5625 5.5 C-13.77956641 7.71440015 -10.27835245 7.83889264 -6 7 C-3.24430553 4.81840855 -1.56411253 3.12822506 0 0 Z " fill="#D8AAA5" transform="translate(425,290)"/>
<path d="M0 0 C0.5775 0.37125 1.155 0.7425 1.75 1.125 C4 2.29166667 4 2.29166667 6.25 1.125 C6.8275 0.75375 7.405 0.3825 8 0 C9 1 9 1 9.0625 4.5625 C9.041875 5.696875 9.02125 6.83125 9 8 C8.34 8 7.68 8 7 8 C6.67 6.68 6.34 5.36 6 4 C5.67 4.66 5.34 5.32 5 6 C4.01 6 3.02 6 2 6 C1.67 5.34 1.34 4.68 1 4 C0.34 5.32 -0.32 6.64 -1 8 C-1.04241723 5.66705225 -1.04092937 3.33297433 -1 1 C-0.67 0.67 -0.34 0.34 0 0 Z " fill="#161616" transform="translate(638,280)"/>
<path d="M0 0 C1 2 1 2 0.3125 4.5 C-1.2356046 7.44877067 -2.12127133 7.56063566 -5 9 C-5.928125 10.485 -5.928125 10.485 -6.875 12 C-9.34319375 15.48450883 -10.91734219 16.07212323 -15 17 C-10.10995345 11.23225279 -5.07515796 5.60523001 0 0 Z " fill="#FDE2E0" transform="translate(431,231)"/>
<path d="M0 0 C0.99 0.33 1.98 0.66 3 1 C3.33 3.31 3.66 5.62 4 8 C3.34 8 2.68 8 2 8 C2 7.34 2 6.68 2 6 C1.34 6 0.68 6 0 6 C-0.33 6.66 -0.66 7.32 -1 8 C-2.32 8 -3.64 8 -5 8 C-6.75 6 -6.75 6 -8 4 C-6.68 3.67 -5.36 3.34 -4 3 C-3.67 3.66 -3.34 4.32 -3 5 C-2.01 3.35 -1.02 1.7 0 0 Z " fill="#161616" transform="translate(600,280)"/>
<path d="M0 0 C0.33 0.66 0.66 1.32 1 2 C0.01 3.485 0.01 3.485 -1 5 C-1.66 5 -2.32 5 -3 5 C-3.23460938 5.73605469 -3.46921875 6.47210938 -3.7109375 7.23046875 C-5.21472659 10.46133682 -6.91297673 12.02665181 -9.625 14.3125 C-10.44226563 15.00988281 -11.25953125 15.70726562 -12.1015625 16.42578125 C-13.04128906 17.20501953 -13.04128906 17.20501953 -14 18 C-14.66 17.67 -15.32 17.34 -16 17 C-8.4433442 8.19668778 -8.4433442 8.19668778 -4.625 5.125 C-1.84516675 3.09024811 -1.84516675 3.09024811 0 0 Z " fill="#E11D20" transform="translate(87,220)"/>
<path d="M0 0 C0.99 0.33 1.98 0.66 3 1 C3.33 2.98 3.66 4.96 4 7 C2.68 6.67 1.36 6.34 0 6 C0 7.65 0 9.3 0 11 C-0.66 10.67 -1.32 10.34 -2 10 C-2 8.35 -2 6.7 -2 5 C-6.455 4.01 -6.455 4.01 -11 3 C-11 2.67 -11 2.34 -11 2 C-9.741875 1.979375 -8.48375 1.95875 -7.1875 1.9375 C-6.47980469 1.92589844 -5.77210938 1.91429687 -5.04296875 1.90234375 C-3 2 -3 2 0 3 C0 2.01 0 1.02 0 0 Z " fill="#F7E3DF" transform="translate(421,277)"/>
<path d="M0 0 C0.73605469 0.00451172 1.47210938 0.00902344 2.23046875 0.01367188 C4.02868158 0.02534858 5.82685197 0.04327989 7.625 0.0625 C7.625 0.3925 7.625 0.7225 7.625 1.0625 C1.0583682 2.62731439 -5.60744383 3.94748811 -12.375 3.0625 C-13.035 2.4025 -13.695 1.7425 -14.375 1.0625 C-9.51770355 0.08950844 -4.9249375 -0.05788805 0 0 Z " fill="#FCD0CB" transform="translate(182.375,223.9375)"/>
<path d="M0 0 C0.33 0.99 0.66 1.98 1 3 C-0.8125 5.6875 -0.8125 5.6875 -3 8 C-3.66 8 -4.32 8 -5 8 C-5.33 8.99 -5.66 9.98 -6 11 C-6.99 11.33 -7.98 11.66 -9 12 C-9.33 12.66 -9.66 13.32 -10 14 C-10.66 14 -11.32 14 -12 14 C-10.41332422 10.09714233 -7.86649519 7.66479018 -4.875 4.75 C-3.96492188 3.85796875 -3.05484375 2.9659375 -2.1171875 2.046875 C-1.41851562 1.37140625 -0.71984375 0.6959375 0 0 Z " fill="#E71215" transform="translate(306,285)"/>
<path d="M0 0 C0.99 0.66 1.98 1.32 3 2 C2.6875 3.875 2.6875 3.875 2 6 C1.01 6.66 0.02 7.32 -1 8 C-1.33 7.01 -1.66 6.02 -2 5 C-1.67 4.34 -1.34 3.68 -1 3 C-1.66 3 -2.32 3 -3 3 C-3.66 4.65 -4.32 6.3 -5 8 C-5.66 8 -6.32 8 -7 8 C-7 8.99 -7 9.98 -7 11 C-7.66 10.67 -8.32 10.34 -9 10 C-4.11407767 1.78276699 -4.11407767 1.78276699 0 0 Z " fill="#FDF7F7" transform="translate(323,260)"/>
<path d="M0 0 C3.875 0.875 3.875 0.875 5 2 C5.33 1.34 5.66 0.68 6 0 C7.32 0.33 8.64 0.66 10 1 C9.67 2.32 9.34 3.64 9 5 C8.34 4.67 7.68 4.34 7 4 C6.67 4.66 6.34 5.32 6 6 C5.01 6 4.02 6 3 6 C3 5.01 3 4.02 3 3 C2.34 3 1.68 3 1 3 C1 4.65 1 6.3 1 8 C0.67 8 0.34 8 0 8 C0 5.36 0 2.72 0 0 Z " fill="#151515" transform="translate(694,232)"/>
<path d="M0 0 C3.875 0.875 3.875 0.875 5 2 C5.33 1.34 5.66 0.68 6 0 C6.99 0 7.98 0 9 0 C9 2.64 9 5.28 9 8 C8.34 6.68 7.68 5.36 7 4 C6.67 4.66 6.34 5.32 6 6 C5.01 6 4.02 6 3 6 C3 5.01 3 4.02 3 3 C2.34 3 1.68 3 1 3 C1 4.65 1 6.3 1 8 C0.67 8 0.34 8 0 8 C0 5.36 0 2.72 0 0 Z " fill="#161616" transform="translate(606,195)"/>
<path d="M0 0 C1.32 0.33 2.64 0.66 4 1 C4 2.65 4 4.3 4 6 C4.66 6 5.32 6 6 6 C6 4.35 6 2.7 6 1 C6.33 1 6.66 1 7 1 C7 3.31 7 5.62 7 8 C5.68 8 4.36 8 3 8 C3 7.34 3 6.68 3 6 C2.34 6 1.68 6 1 6 C0.67 6.66 0.34 7.32 0 8 C0 5.36 0 2.72 0 0 Z " fill="#141414" transform="translate(607,232)"/>
<path d="M0 0 C0.33 0.66 0.66 1.32 1 2 C-1.09302326 7.58139535 -1.09302326 7.58139535 -4.4375 9.125 C-5.283125 9.41375 -6.12875 9.7025 -7 10 C-9.27191416 12.02040748 -9.27191416 12.02040748 -11 14 C-11.66 13.67 -12.32 13.34 -13 13 C-8.71 8.71 -4.42 4.42 0 0 Z " fill="#E5201F" transform="translate(354,235)"/>
<path d="M0 0 C2.375 -0.1875 2.375 -0.1875 5 0 C7.1519437 3.22791555 7.20086443 4.28400809 7 8 C6.34 8 5.68 8 5 8 C4.67 7.34 4.34 6.68 4 6 C2.68 6 1.36 6 0 6 C0 4.02 0 2.04 0 0 Z " fill="#0B0B0B" transform="translate(687,232)"/>
<path d="M0 0 C1.65 0 3.3 0 5 0 C5.33 0.66 5.66 1.32 6 2 C4.35 2 2.7 2 1 2 C1.34786708 3.97536745 1.34786708 3.97536745 2 6 C2.66 6.33 3.32 6.66 4 7 C3.67 6.01 3.34 5.02 3 4 C3.99 4 4.98 4 6 4 C5.67 5.65 5.34 7.3 5 9 C3.35 8.67 1.7 8.34 0 8 C-0.98120464 4.94736336 -0.98120464 3.05263664 0 0 Z " fill="#141414" transform="translate(559,280)"/>
<path d="M0 0 C0 3.88433166 -1.17079686 4.67605496 -3.75 7.5 C-4.44609375 8.2734375 -5.1421875 9.046875 -5.859375 9.84375 C-7.80108592 11.79963399 -9.74930748 13.41843228 -12 15 C-12.66 14.67 -13.32 14.34 -14 14 C-9.38 9.38 -4.76 4.76 0 0 Z " fill="#DEDEDE" transform="translate(778,192)"/>
<path d="M0 0 C0 3.48354205 -0.45035158 3.88427053 -2.6875 6.375 C-3.23019531 6.98214844 -3.77289063 7.58929688 -4.33203125 8.21484375 C-6.50166024 10.53690569 -8.71954485 12.78661706 -11 15 C-11.66 14.67 -12.32 14.34 -13 14 C-11.2088872 12.04115757 -9.41713468 10.08290714 -7.625 8.125 C-7.11710937 7.56941406 -6.60921875 7.01382812 -6.0859375 6.44140625 C-4.0883974 4.25988219 -2.09183907 2.09183907 0 0 Z " fill="#E52426" transform="translate(114,274)"/>
<path d="M0 0 C0.78375 0.04125 1.5675 0.0825 2.375 0.125 C2.375 0.785 2.375 1.445 2.375 2.125 C0.725 2.125 -0.925 2.125 -2.625 2.125 C-2.27713292 4.10036745 -2.27713292 4.10036745 -1.625 6.125 C-0.965 6.455 -0.305 6.785 0.375 7.125 C0.375 6.135 0.375 5.145 0.375 4.125 C1.035 4.125 1.695 4.125 2.375 4.125 C2.375 5.445 2.375 6.765 2.375 8.125 C0.37545254 8.16754356 -1.62541636 8.16580783 -3.625 8.125 C-4.625 7.125 -4.625 7.125 -4.8125 4.6875 C-4.54653904 1.05270021 -3.63803315 0.17323967 0 0 Z " fill="#131313" transform="translate(619.625,231.875)"/>
<path d="M0 0 C0.33 0 0.66 0 1 0 C1 3.63 1 7.26 1 11 C0.34 11 -0.32 11 -1 11 C-1.33 9.68 -1.66 8.36 -2 7 C-3.32 7 -4.64 7 -6 7 C-5.02433888 5.83040013 -4.044375 4.66438823 -3.0625 3.5 C-2.51722656 2.8503125 -1.97195313 2.200625 -1.41015625 1.53125 C-0.71212891 0.77328125 -0.71212891 0.77328125 0 0 Z " fill="#212121" transform="translate(601,230)"/>
<path d="M0 0 C0.33 0.99 0.66 1.98 1 3 C-1.97 5.97 -4.94 8.94 -8 12 C-8.99 11.67 -9.98 11.34 -11 11 C-7.37 7.37 -3.74 3.74 0 0 Z " fill="#FFE4E5" transform="translate(330,250)"/>
<path d="M0 0 C1.65 0.33 3.3 0.66 5 1 C4.06725891 2.12894876 3.12859878 3.25300876 2.1875 4.375 C1.66542969 5.00148437 1.14335937 5.62796875 0.60546875 6.2734375 C-1 8 -1 8 -4 10 C-4 8.35 -4 6.7 -4 5 C-2.68 4.34 -1.36 3.68 0 3 C0 2.01 0 1.02 0 0 Z " fill="#E81A15" transform="translate(448,208)"/>
<path d="M0 0 C1.98 0 3.96 0 6 0 C6 0.66 6 1.32 6 2 C4.35 2 2.7 2 1 2 C1 2.66 1 3.32 1 4 C2.65 4 4.3 4 6 4 C6 4.33 6 4.66 6 5 C4.35 5 2.7 5 1 5 C1 5.66 1 6.32 1 7 C2.32 7.33 3.64 7.66 5 8 C3.33388095 8.042721 1.66617115 8.04063832 0 8 C-0.33 7.67 -0.66 7.34 -1 7 C-0.71269945 4.66055264 -0.38063221 2.3260857 0 0 Z " fill="#171717" transform="translate(611,280)"/>
<path d="M0 0 C1.02158203 0.00644531 2.04316406 0.01289063 3.09570312 0.01953125 C4.15080078 0.03628906 5.20589844 0.05304688 6.29296875 0.0703125 C7.36740234 0.07933594 8.44183594 0.08835937 9.54882812 0.09765625 C12.19293729 0.12115944 14.83658747 0.15401675 17.48046875 0.1953125 C17.48046875 0.5253125 17.48046875 0.8553125 17.48046875 1.1953125 C16.8349707 1.21513184 16.18947266 1.23495117 15.52441406 1.25537109 C12.59269654 1.35077578 9.66167643 1.46039221 6.73046875 1.5703125 C5.20679688 1.61671875 5.20679688 1.61671875 3.65234375 1.6640625 C2.67265625 1.70273437 1.69296875 1.74140625 0.68359375 1.78125 C-0.66750488 1.82838135 -0.66750488 1.82838135 -2.04589844 1.87646484 C-4.60776 2.20668506 -6.30080562 2.90482923 -8.51953125 4.1953125 C-9.17953125 3.5353125 -9.83953125 2.8753125 -10.51953125 2.1953125 C-6.85089074 0.51373104 -4.02537078 -0.04497621 0 0 Z " fill="#FEDBD5" transform="translate(185.51953125,274.8046875)"/>
<path d="M0 0 C1.32 0 2.64 0 4 0 C4 0.66 4 1.32 4 2 C2.68 2 1.36 2 0 2 C0 3.32 0 4.64 0 6 C1.32 6 2.64 6 4 6 C4 6.99 4 7.98 4 9 C-0.875 8.125 -0.875 8.125 -2 7 C-2.1875 4.5625 -2.1875 4.5625 -2 2 C-1.34 1.34 -0.68 0.68 0 0 Z " fill="#131313" transform="translate(623,280)"/>
<path d="M0 0 C5.94 0 11.88 0 18 0 C16.02 2.97 16.02 2.97 14 6 C13.79632813 5.35546875 13.59265625 4.7109375 13.3828125 4.046875 C12.1332065 1.68846128 12.1332065 1.68846128 9.1796875 1.390625 C8.08914063 1.34421875 6.99859375 1.2978125 5.875 1.25 C4.23144531 1.16492188 4.23144531 1.16492188 2.5546875 1.078125 C1.71164062 1.05234375 0.86859375 1.0265625 0 1 C0 0.67 0 0.34 0 0 Z " fill="#D22A21" transform="translate(464,178)"/>
<path d="M0 0 C1.65 0 3.3 0 5 0 C5 0.66 5 1.32 5 2 C3.68 2 2.36 2 1 2 C1 2.66 1 3.32 1 4 C2.32 4.33 3.64 4.66 5 5 C3.68 5 2.36 5 1 5 C1 5.66 1 6.32 1 7 C2.32 7.33 3.64 7.66 5 8 C3.02 8 1.04 8 -1 8 C-1.125 2.25 -1.125 2.25 0 0 Z " fill="#161616" transform="translate(624,232)"/>
<path d="M0 0 C1.32 0 2.64 0 4 0 C4 1.65 4 3.3 4 5 C4.66 5 5.32 5 6 5 C6 3.35 6 1.7 6 0 C6.33 0 6.66 0 7 0 C7 2.31 7 4.62 7 7 C5.68 7 4.36 7 3 7 C2.67 5.68 2.34 4.36 2 3 C1.34 4.32 0.68 5.64 0 7 C0 4.69 0 2.38 0 0 Z " fill="#181818" transform="translate(631,233)"/>
<path d="M0 0 C0.33 0 0.66 0 1 0 C1 3.63 1 7.26 1 11 C-0.32 11.33 -1.64 11.66 -3 12 C-3 10.02 -3 8.04 -3 6 C-2.01 5.67 -1.02 5.34 0 5 C0 3.35 0 1.7 0 0 Z " fill="#FAF0EE" transform="translate(407,283)"/>
<path d="M0 0 C-0.33 2.31 -0.66 4.62 -1 7 C-0.34 7.33 0.32 7.66 1 8 C0.01 8 -0.98 8 -2 8 C-2.33 6.68 -2.66 5.36 -3 4 C-4.65 4.66 -6.3 5.32 -8 6 C-3.375 0 -3.375 0 0 0 Z " fill="#D6D6D6" transform="translate(581,247)"/>
<path d="M0 0 C1.66611905 -0.042721 3.33382885 -0.04063832 5 0 C6 1 6 1 6.0625 4.0625 C6.041875 5.031875 6.02125 6.00125 6 7 C4.68 6.01 3.36 5.02 2 4 C2.66 4 3.32 4 4 4 C4 3.34 4 2.68 4 2 C3.01 2 2.02 2 1 2 C1 3.98 1 5.96 1 8 C0.67 8 0.34 8 0 8 C0 5.36 0 2.72 0 0 Z " fill="#181818" transform="translate(647,232)"/>
<path d="M0 0 C2.31 0 4.62 0 7 0 C7 0.33 7 0.66 7 1 C5.35 1 3.7 1 2 1 C2 1.66 2 2.32 2 3 C3.65 3 5.3 3 7 3 C7 3.33 7 3.66 7 4 C5.35 4 3.7 4 2 4 C2 4.66 2 5.32 2 6 C3.65 6 5.3 6 7 6 C7 6.33 7 6.66 7 7 C5.00045254 7.04254356 2.99958364 7.04080783 1 7 C0 6 0 6 -0.0625 2.9375 C-0.041875 1.968125 -0.02125 0.99875 0 0 Z " fill="#171717" transform="translate(579,196)"/>
<path d="M0 0 C0.99 0.33 1.98 0.66 3 1 C0.89851796 4.98175544 -1.36905358 7.35039045 -5 10 C-5 9.01 -5 8.02 -5 7 C-4.34 7 -3.68 7 -3 7 C-2.87625 6.401875 -2.7525 5.80375 -2.625 5.1875 C-2 3 -2 3 0 0 Z " fill="#E31212" transform="translate(462,194)"/>
<path d="M0 0 C0.33 0 0.66 0 1 0 C1 4.62 1 9.24 1 14 C1.99 14 2.98 14 4 14 C4 14.99 4 15.98 4 17 C-0.875 15.25 -0.875 15.25 -2 13 C-1.34 13 -0.68 13 0 13 C0 8.71 0 4.42 0 0 Z " fill="#FEDFD6" transform="translate(408,281)"/>
<path d="M0 0 C0.33 1.65 0.66 3.3 1 5 C0.01 5 -0.98 5 -2 5 C-2 5.66 -2 6.32 -2 7 C-2.66 7 -3.32 7 -4 7 C-4.33 5.35 -4.66 3.7 -5 2 C-2 0 -2 0 0 0 Z " fill="#FAFAFA" transform="translate(578,251)"/>
<path d="M0 0 C0.78375 0.04125 1.5675 0.0825 2.375 0.125 C2.375 0.785 2.375 1.445 2.375 2.125 C1.055 2.455 -0.265 2.785 -1.625 3.125 C-0.635 3.785 0.355 4.445 1.375 5.125 C0.055 5.125 -1.265 5.125 -2.625 5.125 C-2.625 5.785 -2.625 6.445 -2.625 7.125 C-3.285 7.125 -3.945 7.125 -4.625 7.125 C-4.75 4.75 -4.75 4.75 -4.625 2.125 C-2.625 0.125 -2.625 0.125 0 0 Z " fill="#171717" transform="translate(671.625,231.875)"/>
<path d="M0 0 C1.98 0 3.96 0 6 0 C4.68 0.33 3.36 0.66 2 1 C2 1.66 2 2.32 2 3 C3.32 3.33 4.64 3.66 6 4 C4.68 4 3.36 4 2 4 C2 4.66 2 5.32 2 6 C3.32 6.33 4.64 6.66 6 7 C4.02 7 2.04 7 0 7 C0 4.69 0 2.38 0 0 Z " fill="#1A1A1A" transform="translate(535,196)"/>
<path d="M0 0 C1.125 1.75 1.125 1.75 2 4 C1.125 6.25 1.125 6.25 0 8 C-0.66 8 -1.32 8 -2 8 C-2 7.01 -2 6.02 -2 5 C-2.66 4.67 -3.32 4.34 -4 4 C-2.68 2.68 -1.36 1.36 0 0 Z " fill="#1E1E1E" transform="translate(552,280)"/>
<path d="M0 0 C0.33 1.32 0.66 2.64 1 4 C-1.3125 6.0625 -1.3125 6.0625 -4 8 C-4.99 7.67 -5.98 7.34 -7 7 C-4.69 4.69 -2.38 2.38 0 0 Z " fill="#FEE1DA" transform="translate(411,252)"/>
<path d="M0 0 C0.66 0.33 1.32 0.66 2 1 C0.70700306 3.88437779 -0.65941363 5.87219421 -3 8 C-3.99 7.67 -4.98 7.34 -6 7 C-4.02 4.69 -2.04 2.38 0 0 Z " fill="#FEE1DE" transform="translate(341,238)"/>
<path d="M0 0 C2.475 0.495 2.475 0.495 5 1 C5 2.32 5 3.64 5 5 C3.35 5 1.7 5 0 5 C0 3.35 0 1.7 0 0 Z " fill="#FEE0D9" transform="translate(412,282)"/>
<path d="M0 0 C0.66 0.33 1.32 0.66 2 1 C-1.33333333 4.33333333 -4.66666667 7.66666667 -8 11 C-8.66 10.67 -9.32 10.34 -10 10 C-6.7 6.7 -3.4 3.4 0 0 Z " fill="#FFE5E3" transform="translate(173,278)"/>
<path d="M0 0 C1.32 0.33 2.64 0.66 4 1 C1.36 3.64 -1.28 6.28 -4 9 C-4.33 8.34 -4.66 7.68 -5 7 C-4.54625 6.5875 -4.0925 6.175 -3.625 5.75 C-1.94049626 3.93591905 -1.00734029 2.24714373 0 0 Z " fill="#DC1A1F" transform="translate(161,286)"/>
<path d="M0 0 C0 3 0 3 -1 6 C-2.95597184 7.39712274 -4.95436401 8.73779907 -7 10 C-6.42424336 6.64749299 -5.40693737 5.06181371 -2.9375 2.75 C-2.38964844 2.22921875 -1.84179688 1.7084375 -1.27734375 1.171875 C-0.64505859 0.59179688 -0.64505859 0.59179688 0 0 Z " fill="#FEDAD4" transform="translate(382,282)"/>
<path d="M0 0 C1.33332095 2.6666419 0.67102033 4.16680303 0 7 C-2.31 7.33 -4.62 7.66 -7 8 C-6.02133662 6.85373678 -5.04205413 5.70800212 -4.0625 4.5625 C-3.51722656 3.92441406 -2.97195312 3.28632813 -2.41015625 2.62890625 C-1.63204305 1.73008851 -0.84063472 0.84063472 0 0 Z " fill="#E60D10" transform="translate(46,263)"/>
<path d="M0 0 C1 2 1 2 1 5 C3.97 5.495 3.97 5.495 7 6 C7 6.33 7 6.66 7 7 C-0.75 7.125 -0.75 7.125 -3 6 C-2.42655063 3.13275314 -2.1385485 2.1385485 0 0 Z " fill="#9B9B9B" transform="translate(583,248)"/>
<path d="M0 0 C0.66 0.33 1.32 0.66 2 1 C0.63875 1.86625 0.63875 1.86625 -0.75 2.75 C-3.52022946 4.66785116 -5.71945499 6.54402845 -8 9 C-8.66 8.34 -9.32 7.68 -10 7 C-6.7 4.69 -3.4 2.38 0 0 Z " fill="#E01B1B" transform="translate(123,189)"/>
<path d="M0 0 C0.99 0.33 1.98 0.66 3 1 C3 2.65 3 4.3 3 6 C2.01 6.33 1.02 6.66 0 7 C-0.66 6.67 -1.32 6.34 -2 6 C-2 5.34 -2 4.68 -2 4 C-1.34 4 -0.68 4 0 4 C0 2.68 0 1.36 0 0 Z " fill="#E9190F" transform="translate(474,179)"/>
<path d="M0 0 C0.66 0.33 1.32 0.66 2 1 C-0.3125 3.5 -0.3125 3.5 -3 6 C-3.99 6 -4.98 6 -6 6 C-5.67 4.68 -5.34 3.36 -5 2 C-3.35 2 -1.7 2 0 2 C0 1.34 0 0.68 0 0 Z " fill="#FEE4D5" transform="translate(422,292)"/>
<path d="M0 0 C-0.625 1.875 -0.625 1.875 -2 4 C-5.125 5.25 -5.125 5.25 -8 6 C-3.375 0 -3.375 0 0 0 Z " fill="#FFEEE7" transform="translate(424,242)"/>
<path d="M0 0 C0.99 0 1.98 0 3 0 C3 2.31 3 4.62 3 7 C2.01 7 1.02 7 0 7 C0 4.69 0 2.38 0 0 Z " fill="#0F0F0F" transform="translate(516,196)"/>
<path d="M0 0 C0 3 0 3 -1 6 C-0.34 6.33 0.32 6.66 1 7 C-0.98 7 -2.96 7 -5 7 C-3.70700306 4.11562221 -2.34058637 2.12780579 0 0 Z " fill="#DB191A" transform="translate(96,293)"/>
<path d="M0 0 C1 3 1 3 0.25 5.0625 C-1 7 -1 7 -4 9 C-4.99 8.67 -5.98 8.34 -7 8 C-6.21625 7.236875 -5.4325 6.47375 -4.625 5.6875 C-1.92742283 3.09108195 -1.92742283 3.09108195 0 0 Z " fill="#BE6D67" transform="translate(425,290)"/>
<path d="M0 0 C0.99 0.33 1.98 0.66 3 1 C1.625 2.5 1.625 2.5 0 4 C-0.66 4 -1.32 4 -2 4 C-2.66 5.32 -3.32 6.64 -4 8 C-4.33 7.01 -4.66 6.02 -5 5 C-4.34 4.01 -3.68 3.02 -3 2 C-2.01 2 -1.02 2 0 2 C0 1.34 0 0.68 0 0 Z " fill="#CDCDCD" transform="translate(497,248)"/>
<path d="M0 0 C1.65 0 3.3 0 5 0 C3.63016497 3.16115776 3.0109362 3.9927092 0 6 C0 4.02 0 2.04 0 0 Z " fill="#ED2222" transform="translate(424,233)"/>
<path d="M0 0 C1.32 0 2.64 0 4 0 C4 1.65 4 3.3 4 5 C2.68 5 1.36 5 0 5 C0 3.35 0 1.7 0 0 Z " fill="#030303" transform="translate(599,197)"/>
<path d="M0 0 C0.33 0 0.66 0 1 0 C1 1.98 1 3.96 1 6 C2.98 6.495 2.98 6.495 5 7 C5 7.66 5 8.32 5 9 C3.35 8.67 1.7 8.34 0 8 C0 5.36 0 2.72 0 0 Z " fill="#131313" transform="translate(605,280)"/>
<path d="M0 0 C0.33 1.32 0.66 2.64 1 4 C-0.65 5.32 -2.3 6.64 -4 8 C-4.66 7.34 -5.32 6.68 -6 6 C-4.02 4.02 -2.04 2.04 0 0 Z " fill="#FEECED" transform="translate(119,258)"/>
<path d="M0 0 C1.32 0.33 2.64 0.66 4 1 C0.535 3.97 0.535 3.97 -3 7 C-2.25 2.25 -2.25 2.25 0 0 Z " fill="#E1211E" transform="translate(331,245)"/>
<path d="M0 0 C0.66 0 1.32 0 2 0 C2.33 1.98 2.66 3.96 3 6 C2.01 6.66 1.02 7.32 0 8 C0 5.36 0 2.72 0 0 Z " fill="#131313" transform="translate(585,231)"/>
<path d="M0 0 C0.33 0.66 0.66 1.32 1 2 C0.67 2.99 0.34 3.98 0 5 C-0.99 5 -1.98 5 -3 5 C-3 5.99 -3 6.98 -3 8 C-3.99 7.67 -4.98 7.34 -6 7 C-4.02 4.69 -2.04 2.38 0 0 Z " fill="#E52F2A" transform="translate(396,191)"/>
<path d="M0 0 C0 4.38968456 -2.12805101 5.76905739 -5 9 C-5.99 8.67 -6.98 8.34 -8 8 C-5.36 5.36 -2.72 2.72 0 0 Z " fill="#FEE7E5" transform="translate(396,182)"/>
<path d="M0 0 C0.99 0 1.98 0 3 0 C2.67 0.99 2.34 1.98 2 3 C1.01 3.33 0.02 3.66 -1 4 C-1.33 4.66 -1.66 5.32 -2 6 C-2.66 6 -3.32 6 -4 6 C-2.84826645 3.53199953 -1.95216435 1.95216435 0 0 Z " fill="#E81B1C" transform="translate(298,293)"/>
<path d="M0 0 C0 3 0 3 -1 6 C-1.66 6 -2.32 6 -3 6 C-3 6.66 -3 7.32 -3 8 C-3.66 8 -4.32 8 -5 8 C-4.45773019 4.20411134 -2.79872437 2.52788007 0 0 Z " fill="#2B2B2B" transform="translate(541,291)"/>
<path d="M0 0 C0.66 0.33 1.32 0.66 2 1 C1.375 2.875 1.375 2.875 0 5 C-3.125 6.25 -3.125 6.25 -6 7 C-4.02 4.69 -2.04 2.38 0 0 Z " fill="#EA3333" transform="translate(56,252)"/>
<path d="M0 0 C0.33 0.66 0.66 1.32 1 2 C-1.40436026 5.60654039 -2.94679607 5.85452932 -7 7 C-4.66666667 4.66666667 -2.33333333 2.33333333 0 0 Z " fill="#FED9D2" transform="translate(144,234)"/>
<path d="M0 0 C0.33 0.66 0.66 1.32 1 2 C-0.32 3.65 -1.64 5.3 -3 7 C-3.99 6.67 -4.98 6.34 -6 6 C-4.02 4.02 -2.04 2.04 0 0 Z " fill="#E60E0C" transform="translate(365,224)"/>
</svg>
